<svg width="25" height="25" viewBox="0 0 25 25" fill="none" xmlns="http://www.w3.org/2000/svg">
<path d="M25 5.21875C24.0784 5.62891 23.0906 5.9043 22.0521 6.0293C23.112 5.39258 23.9264 4.38477 24.3083 3.18555C23.3185 3.77344 22.2177 4.20117 21.0506 4.43164C20.1153 3.43164 18.7826 2.80859 17.3077 2.80859C14.4747 2.80859 12.1775 5.10938 12.1775 7.94922C12.1775 8.35157 12.2243 8.74415 12.312 9.1211C8.04886 8.90626 4.27091 6.85938 1.73993 3.74805C1.29764 4.50977 1.04629 5.39258 1.04629 6.33399C1.04629 8.11719 1.95035 9.69141 3.32788 10.6152C2.48617 10.5879 1.69511 10.3555 1.00343 9.97071C1.00343 9.99219 1.00343 10.0137 1.00343 10.0352C1.00343 12.5274 2.77258 14.6035 5.11651 15.0781C4.68786 15.1953 4.23389 15.2578 3.76627 15.2578C3.43504 15.2578 3.11355 15.2266 2.79986 15.1641C3.45452 17.2051 5.34837 18.6953 7.59099 18.7363C5.83742 20.1153 3.62598 20.9356 1.22165 20.9356C0.80664 20.9356 0.399423 20.9121 0 20.8633C2.26794 22.3242 4.96454 23.1738 7.86182 23.1738C17.296 23.1738 22.4554 15.3399 22.4554 8.54688C22.4554 8.32422 22.4495 8.09961 22.4417 7.88086C23.4432 7.15625 24.3122 6.25 25 5.21875Z" fill="white"/>
</svg>
