<svg width="20" height="20" viewBox="0 0 20 20" fill="none" xmlns="http://www.w3.org/2000/svg">
<path d="M20 12.2635V20H15.7116V12.7781C15.7116 10.9624 15.0933 9.72833 13.5416 9.72833C12.355 9.72833 11.655 10.5638 11.3425 11.3679C11.23 11.6574 11.1958 12.0629 11.1958 12.4632V19.9991H6.91167C6.91167 19.9991 6.96918 7.77217 6.91167 6.50588H11.1967V8.41839C11.1909 8.4341 11.1784 8.44715 11.1725 8.46461H11.1967V8.41839C11.7692 7.49921 12.7833 6.18927 15.0608 6.18927C17.8875 6.18931 20 8.11754 20 12.2635ZM2.42582 0C0.960003 0 0 1.00642 0 2.33378C0 3.62538 0.931687 4.66581 2.37081 4.66581H2.39666C3.89497 4.66581 4.82331 3.62538 4.82331 2.33378C4.79416 1.00642 3.89502 0 2.42582 0ZM0.255853 20H4.5417V6.50504H0.255853V20Z" fill="#FDFDFD"/>
</svg>
