<svg width="25" height="25" viewBox="0 0 25 25" fill="none" xmlns="http://www.w3.org/2000/svg">
<path d="M22.4492 7.25C22.25 6.15039 21.3008 5.34961 20.1992 5.09961C18.5508 4.75 15.5 4.5 12.1992 4.5C8.90039 4.5 5.80078 4.75 4.15039 5.09961C3.05078 5.34961 2.09961 6.09961 1.90039 7.25C1.69922 8.5 1.5 10.25 1.5 12.5C1.5 14.75 1.69922 16.5 1.94922 17.75C2.15039 18.8496 3.09961 19.6504 4.19922 19.9004C5.94922 20.25 8.94922 20.5 12.25 20.5C15.5508 20.5 18.5508 20.25 20.3008 19.9004C21.4004 19.6504 22.3496 18.9004 22.5508 17.75C22.75 16.5 23 14.6992 23.0508 12.5C22.9492 10.25 22.6992 8.5 22.4492 7.25ZM9.5 16V9L15.5996 12.5L9.5 16Z" fill="white"/>
</svg>
