<svg width="23" height="23" viewBox="0 0 23 23" fill="none" xmlns="http://www.w3.org/2000/svg">
<path d="M17.2491 0.00490756L14.2665 0.00012207C10.9157 0.00012207 8.75027 2.22178 8.75027 5.66039V8.27016H5.75145C5.49231 8.27016 5.28247 8.48024 5.28247 8.73938V12.5206C5.28247 12.7798 5.49255 12.9896 5.75145 12.9896H8.75027V22.5309C8.75027 22.79 8.96012 22.9999 9.21925 22.9999H13.1319C13.391 22.9999 13.6008 22.7898 13.6008 22.5309V12.9896H17.1072C17.3663 12.9896 17.5761 12.7798 17.5761 12.5206L17.5776 8.73938C17.5776 8.61495 17.5281 8.49579 17.4402 8.40774C17.3524 8.31969 17.2328 8.27016 17.1084 8.27016H13.6008V6.05783C13.6008 4.99449 13.8542 4.45469 15.2394 4.45469L17.2486 4.45397C17.5075 4.45397 17.7173 4.24389 17.7173 3.985V0.473885C17.7173 0.21523 17.5077 0.0053861 17.2491 0.00490756Z" fill="#FDFDFD"/>
</svg>
