<svg width="22" height="22" viewBox="0 0 22 22" fill="none" xmlns="http://www.w3.org/2000/svg">
<path d="M21.3675 13.3348C21.527 12.6184 21.6095 11.8759 21.6095 11.1141C21.6095 5.401 16.9125 0.768625 11.1169 0.768625C10.5064 0.768625 9.90688 0.820875 9.3225 0.919875C8.38475 0.33825 7.27513 0 6.08575 0C2.72388 0 0 2.68537 0 6.0005C0 7.10737 0.30525 8.14275 0.836 9.03512C0.697125 9.70613 0.622875 10.4019 0.622875 11.1141C0.622875 16.8286 5.32125 21.461 11.1155 21.461C11.7727 21.461 12.4149 21.4005 13.0378 21.2878C13.8958 21.7415 14.8748 22 15.9156 22C19.2761 22 22 19.3132 22 16.0009C22 15.0425 21.7717 14.1391 21.3675 13.3348ZM16.4986 16.0586C16.0133 16.7365 15.2969 17.2728 14.366 17.6523C13.4461 18.0304 12.3448 18.2229 11.088 18.2229C9.581 18.2229 8.31738 17.9616 7.33012 17.4446C6.62475 17.0693 6.0445 16.5619 5.60312 15.9321C5.15625 15.2996 4.93213 14.6712 4.93213 14.0635C4.93213 13.6854 5.07925 13.3568 5.36937 13.0886C5.65675 12.8205 6.02525 12.6871 6.46525 12.6871C6.8255 12.6871 7.13625 12.793 7.38925 13.0034C7.62988 13.2055 7.8375 13.5052 8.00387 13.8889C8.1895 14.3096 8.39162 14.6644 8.60475 14.9408C8.81238 15.2116 9.108 15.4371 9.48612 15.6145C9.867 15.7905 10.3799 15.8826 11.0096 15.8826C11.8772 15.8826 12.5895 15.6997 13.123 15.3395C13.6469 14.9889 13.8999 14.5654 13.8999 14.0484C13.8999 13.6414 13.7665 13.3196 13.4956 13.068C13.2096 12.804 12.8329 12.5991 12.3764 12.4575C11.8993 12.3118 11.2516 12.1523 10.4514 11.9873C9.361 11.7576 8.43563 11.4854 7.70138 11.176C6.94925 10.8598 6.3415 10.4225 5.89875 9.87525C5.44775 9.31838 5.2195 8.62125 5.2195 7.80175C5.2195 7.02075 5.45875 6.31675 5.93175 5.709C6.40063 5.10537 7.08537 4.63375 7.9695 4.31337C8.83988 3.99575 9.87525 3.83488 11.0481 3.83488C11.9845 3.83488 12.8081 3.94212 13.497 4.15387C14.1886 4.36562 14.7716 4.65163 15.2295 5.005C15.6915 5.3625 16.0352 5.74062 16.2498 6.13662C16.467 6.53537 16.5784 6.93275 16.5784 7.31638C16.5784 7.68625 16.434 8.02312 16.148 8.31462C15.8593 8.61025 15.4963 8.75875 15.07 8.75875C14.6823 8.75875 14.377 8.66388 14.1666 8.481C13.97 8.30912 13.7651 8.041 13.5396 7.65875C13.2784 7.16925 12.9607 6.78288 12.5977 6.50925C12.2444 6.24388 11.6559 6.11188 10.8446 6.11188C10.0939 6.11188 9.48063 6.26038 9.02688 6.55463C8.58963 6.8365 8.3765 7.161 8.3765 7.546C8.3765 7.78113 8.44525 7.97775 8.58687 8.14688C8.73537 8.32837 8.94575 8.48375 9.2125 8.61575C9.4875 8.75187 9.77213 8.86187 10.0568 8.93888C10.3483 9.01863 10.8364 9.13825 11.5087 9.29087C12.3585 9.46962 13.1381 9.67175 13.8284 9.89038C14.5283 10.109 15.1305 10.3799 15.6255 10.6975C16.1274 11.0206 16.5247 11.4331 16.808 11.9281C17.0912 12.4272 17.2343 13.0391 17.2343 13.7514C17.2329 14.6025 16.9854 15.3794 16.4986 16.0586Z" fill="#FDFDFD"/>
</svg>
