<svg width="22" height="19" viewBox="0 0 22 19" fill="none" xmlns="http://www.w3.org/2000/svg">
<path d="M0.388585 9.11043L5.45783 10.9872L7.41994 17.2463C7.54549 17.6472 8.03968 17.7954 8.3677 17.5294L11.1934 15.2444C11.4896 15.005 11.9115 14.9931 12.221 15.216L17.3175 18.8863C17.6684 19.1393 18.1656 18.9485 18.2536 18.5279L21.987 0.714279C22.0831 0.254846 21.628 -0.128427 21.187 0.0407688L0.382645 8.00164C-0.130762 8.19804 -0.126289 8.91905 0.388585 9.11043ZM7.10373 9.98813L17.0109 3.93555C17.189 3.82709 17.3722 4.0659 17.2193 4.20658L9.04296 11.7455C8.75556 12.0108 8.57018 12.366 8.51767 12.7514L8.23915 14.7988C8.20226 15.0722 7.81513 15.0993 7.73909 14.8347L6.66791 11.1013C6.54522 10.6755 6.72401 10.2206 7.10373 9.98813Z" fill="#FDFDFD"/>
</svg>
