<svg width="25" height="25" viewBox="0 0 25 25" fill="none" xmlns="http://www.w3.org/2000/svg">
<path d="M20.8125 5.38478C18.8223 3.78322 15.6738 3.51174 15.5391 3.50197C15.3301 3.48439 15.1309 3.60158 15.0449 3.79494C15.0371 3.80666 14.9687 3.96486 14.8926 4.21095C16.209 4.43361 17.8262 4.88088 19.2891 5.78908C19.5234 5.93361 19.5957 6.2422 19.4512 6.47658C19.3555 6.63087 19.1934 6.71486 19.0254 6.71486C18.9355 6.71486 18.8438 6.68947 18.7617 6.63869C16.2461 5.07814 13.1055 5.00002 12.5 5.00002C11.8945 5.00002 8.75195 5.07814 6.23828 6.63869C6.00391 6.78517 5.69531 6.7129 5.55078 6.47853C5.4043 6.2422 5.47656 5.93556 5.71094 5.78908C7.17383 4.88283 8.79102 4.43361 10.1074 4.21291C10.0312 3.96486 9.96289 3.80861 9.95703 3.79494C9.86914 3.60158 9.67188 3.48049 9.46094 3.50197C9.32617 3.51174 6.17773 3.78322 4.16016 5.40627C3.10742 6.38087 1 12.0762 1 17C1 17.0879 1.02344 17.1719 1.06641 17.248C2.51953 19.8027 6.48633 20.4707 7.39062 20.5C7.39453 20.5 7.40039 20.5 7.40625 20.5C7.56641 20.5 7.7168 20.4238 7.81055 20.2949L8.72461 19.0371C6.25781 18.4004 4.99805 17.3184 4.92578 17.2539C4.71875 17.0723 4.69922 16.7559 4.88281 16.5488C5.06445 16.3418 5.38086 16.3223 5.58789 16.5039C5.61719 16.5313 7.9375 18.5 12.5 18.5C17.0703 18.5 19.3906 16.5234 19.4141 16.5039C19.6211 16.3242 19.9355 16.3418 20.1191 16.5508C20.3008 16.7578 20.2812 17.0723 20.0742 17.2539C20.002 17.3184 18.7422 18.4004 16.2754 19.0371L17.1895 20.2949C17.2832 20.4238 17.4336 20.5 17.5937 20.5C17.5996 20.5 17.6055 20.5 17.6094 20.5C18.5137 20.4707 22.4805 19.8027 23.9336 17.248C23.9766 17.1719 24 17.0879 24 17C24 12.0762 21.8926 6.38087 20.8125 5.38478ZM9.25 15C8.2832 15 7.5 14.1055 7.5 13C7.5 11.8945 8.2832 11 9.25 11C10.2168 11 11 11.8945 11 13C11 14.1055 10.2168 15 9.25 15ZM15.75 15C14.7832 15 14 14.1055 14 13C14 11.8945 14.7832 11 15.75 11C16.7168 11 17.5 11.8945 17.5 13C17.5 14.1055 16.7168 15 15.75 15Z" fill="white"/>
</svg>
