<svg width="22" height="22" viewBox="0 0 22 22" fill="none" xmlns="http://www.w3.org/2000/svg">
<path d="M21.5687 16.4281C18.6275 15.9119 17.3019 12.6984 17.2483 12.562C17.2442 12.5532 17.2414 12.5444 17.2359 12.5356C17.086 12.21 17.0503 11.9416 17.1328 11.7377C17.2937 11.3359 17.9097 11.1276 18.3167 10.9897C18.435 10.9501 18.5464 10.912 18.6385 10.8739C19.04 10.7052 19.326 10.5219 19.5158 10.3151C19.7413 10.0672 19.7853 9.8296 19.7825 9.6756C19.7757 9.30013 19.5061 8.96573 19.0758 8.80293C18.9314 8.73987 18.765 8.70613 18.5972 8.70613C18.4831 8.70613 18.3126 8.72227 18.1517 8.80293C17.8079 8.97453 17.4999 9.0684 17.2345 9.0816C17.0943 9.07427 16.9953 9.042 16.9307 9.0112C16.9389 8.86453 16.9472 8.71347 16.9568 8.558L16.9609 8.49053C17.0558 6.90213 17.1727 4.92653 16.6804 3.7532C16.3435 2.94947 15.8911 2.25867 15.3342 1.6984C14.8681 1.22907 14.3263 0.847733 13.724 0.566133C12.6776 0.0733334 11.7013 0 11.2118 0H11.2104C11.1911 0 11.1733 0 11.1568 0C11.0206 0.00146667 10.7992 0.00439999 10.7786 0.00439999C10.2905 0.00439999 9.3128 0.0777334 8.26362 0.570533C7.66272 0.852133 7.12369 1.232 6.65892 1.70133C6.10477 2.2616 5.65375 2.95093 5.31823 3.75173C4.82596 4.9236 4.94284 6.8992 5.03635 8.48613V8.48907C5.04597 8.6592 5.05697 8.83667 5.0666 9.00973C4.99509 9.04347 4.87821 9.0816 4.70633 9.0816C4.42857 9.0816 4.09855 8.98773 3.72591 8.80147C3.61591 8.7472 3.49077 8.71933 3.35327 8.71933C3.13188 8.71933 2.89675 8.78827 2.69461 8.91587C2.43885 9.07573 2.27384 9.30013 2.22847 9.55093C2.19959 9.7152 2.20096 10.0423 2.54198 10.3737C2.73036 10.5556 3.00538 10.7243 3.36152 10.8739C3.45502 10.9135 3.5664 10.9501 3.68328 10.9897C4.0903 11.1276 4.70771 11.3359 4.86859 11.7377C4.94972 11.9416 4.91397 12.21 4.76408 12.5356C4.75996 12.5444 4.75583 12.5532 4.75308 12.562C4.71458 12.6559 4.36394 13.4992 3.64478 14.3895C3.23639 14.8955 2.78674 15.3193 2.30822 15.6479C1.72382 16.0497 1.09266 16.3108 0.431257 16.4267C0.17137 16.4721 -0.0142641 16.7185 0.000861592 16.9987C0.00498678 17.0793 0.0228626 17.16 0.0544891 17.2377V17.2392C0.160369 17.5017 0.403755 17.7232 0.799774 17.9183C1.2838 18.1573 2.00708 18.3583 2.95175 18.5152C2.99988 18.612 3.04938 18.854 3.08376 19.0197C3.11951 19.1957 3.15663 19.3776 3.21026 19.5697C3.26801 19.778 3.41652 20.0273 3.80016 20.0273C3.94592 20.0273 4.1123 19.9921 4.30619 19.9525C4.58945 19.8939 4.97722 19.8132 5.45987 19.8132C5.728 19.8132 6.00577 19.8381 6.2849 19.888C6.82393 19.9833 7.2887 20.3324 7.82635 20.7372C8.61289 21.3297 9.50393 22 10.8652 22C10.9024 22 10.9395 21.9985 10.9766 21.9956C11.0206 21.9985 11.077 22 11.1348 22C12.4961 22 13.3871 21.3297 14.1736 20.7387L14.175 20.7372C14.7127 20.3339 15.1774 19.9848 15.7165 19.8895C15.9956 19.8396 16.2734 19.8147 16.5415 19.8147C17.0035 19.8147 17.3693 19.8777 17.6952 19.9452C17.9083 19.9892 18.0733 20.0112 18.2012 20.0112H18.2136H18.226C18.5065 20.0112 18.7127 19.8469 18.7911 19.5609C18.8434 19.3717 18.8805 19.1957 18.9176 19.0153C18.9492 18.8599 19.0015 18.6105 19.0483 18.5137C19.9929 18.3553 20.7162 18.1559 21.2002 17.9168C21.5949 17.7217 21.8383 17.5003 21.9441 17.2392C21.9758 17.1615 21.995 17.0808 21.9991 16.9972C22.0143 16.72 21.8286 16.4721 21.5687 16.4281Z" fill="#FDFDFD"/>
</svg>
