<svg width="17" height="16" viewBox="0 0 17 16" fill="none" xmlns="http://www.w3.org/2000/svg">
<path d="M16.5962 7.47836L9.49282 0.402188C9.22369 0.13405 8.89307 0 8.50004 0C8.10001 0 7.77252 0.13405 7.51795 0.402188L0.414588 7.47836C0.138158 7.75369 0 8.08355 0 8.46761C0 8.84441 0.13831 9.17038 0.414588 9.44579L1.23287 10.2609C1.49482 10.5362 1.82219 10.6741 2.21496 10.6741C2.60776 10.6741 2.93506 10.5362 3.19704 10.2609L6.40501 7.07614V14.7284C6.40501 15.105 6.54133 15.4113 6.81417 15.647C7.08701 15.8824 7.41618 16 7.80161 16H9.19828C9.58386 16 9.91288 15.8824 10.1857 15.647C10.4586 15.4114 10.5951 15.105 10.5951 14.7284V7.07617L13.803 10.2609C14.0648 10.5362 14.3921 10.6742 14.7852 10.6742C15.1705 10.6742 15.5017 10.5362 15.7779 10.2609L16.5962 9.44582C16.8653 9.1631 17 8.83714 17 8.46765C17 8.09082 16.8654 7.76108 16.5962 7.47836Z" fill="#1BC47D"/>
</svg>
