<svg width="17" height="16" viewBox="0 0 17 16" fill="none" xmlns="http://www.w3.org/2000/svg">
<path d="M0.403809 8.52164L7.50718 15.5978C7.77631 15.8659 8.10693 16 8.49996 16C8.89999 16 9.22748 15.8659 9.48205 15.5978L16.5854 8.52164C16.8618 8.24631 17 7.91645 17 7.53239C17 7.15559 16.8617 6.82962 16.5854 6.55421L15.7671 5.73914C15.5052 5.46384 15.1778 5.32587 14.785 5.32587C14.3922 5.32587 14.0649 5.46384 13.803 5.73914L10.595 8.92386L10.595 1.27155C10.595 0.895026 10.4587 0.588702 10.1858 0.353039C9.91299 0.117604 9.58382 9.53674e-07 9.19839 9.53674e-07H7.80172C7.41614 9.53674e-07 7.08712 0.117642 6.81429 0.353039C6.54145 0.588626 6.40489 0.895026 6.40489 1.27155L6.40489 8.92383L3.19696 5.7391C2.93525 5.46381 2.60791 5.32583 2.21476 5.32583C1.82945 5.32583 1.49829 5.46381 1.22205 5.7391L0.403847 6.55418C0.134678 6.8369 0 7.16286 0 7.53235C-3.8147e-05 7.90918 0.13464 8.23892 0.403809 8.52164Z" fill="#CC3939"/>
</svg>
