<svg width="30" height="30" viewBox="0 0 30 30" fill="none" xmlns="http://www.w3.org/2000/svg">
<g clip-path="url(#clip0)">
<path d="M17.7994 22.3741C17.8027 19.9452 19.6091 17.8964 22.0187 17.5888C20.1626 17.3503 18.336 18.2068 17.3322 19.7861C16.3284 21.3653 16.3284 23.3827 17.3322 24.9621C18.336 26.5414 20.1626 27.3977 22.0187 27.1592C19.6091 26.8518 17.8027 24.803 17.7994 22.3741Z" fill="#D4E1F4"/>
<path d="M21.4578 5.69971e-08C20.3244 0.00141855 19.4059 0.919893 19.4045 2.05327C19.4045 2.10079 19.4069 2.14784 19.4099 2.19441L16.8581 4.53351C16.1881 3.78431 15.0741 3.6304 14.2261 4.1699C13.3783 4.70964 13.0459 5.78391 13.4407 6.70806L10.981 8.78261C10.6347 8.17644 10.0039 7.78801 9.30696 7.7516C8.60977 7.71543 7.94213 8.03601 7.53479 8.60293L5.04864 6.87189C5.33518 5.84632 4.79189 4.77181 3.79635 4.39449C2.80056 4.01718 1.68161 4.46187 1.21658 5.41959C0.751312 6.37731 1.09388 7.53173 2.00621 8.08092C2.9183 8.62988 4.09896 8.39228 4.72759 7.53315L7.21799 9.26702C6.99978 10.0713 7.28915 10.9278 7.95088 11.4347C8.61237 11.9418 9.51453 11.9986 10.2344 11.5787C10.9543 11.1586 11.3491 10.3453 11.2335 9.51999L13.8445 7.31777C14.5192 8.02749 15.6015 8.16131 16.429 7.63717C17.2562 7.11328 17.5978 6.07777 17.2449 5.16426L19.627 2.98097C20.0837 3.88218 21.1282 4.31719 22.0897 4.0063C23.0512 3.69541 23.6434 2.73107 23.486 1.73316C23.3285 0.735016 22.4682 -0.000236359 21.4578 5.69971e-08ZM3.07079 7.64876C2.3379 7.64876 1.74379 7.05464 1.74379 6.32176C1.74379 5.58887 2.3379 4.99475 3.07079 4.99475C3.80368 4.99475 4.39779 5.58887 4.39779 6.32176C4.39708 7.05441 3.80344 7.64781 3.07079 7.64876ZM9.19986 11.1293C8.46698 11.1293 7.87286 10.5352 7.87286 9.80227C7.87286 9.06914 8.46698 8.47503 9.19986 8.47503C9.93275 8.47503 10.5269 9.06914 10.5269 9.80227C10.5259 10.5347 9.93228 11.1283 9.19986 11.1293ZM15.3289 7.22888C14.5961 7.22888 14.0019 6.63477 14.0019 5.90188C14.0019 5.16899 14.5961 4.57488 15.3289 4.57488C16.0618 4.57488 16.6559 5.16899 16.6559 5.90188C16.655 6.63453 16.0614 7.22817 15.3289 7.22888ZM21.4578 3.38027C20.7249 3.38051 20.1308 2.78616 20.1308 2.05327C20.1308 1.32038 20.7249 0.726269 21.4578 0.726269C22.1907 0.726269 22.7848 1.32038 22.7848 2.05327C22.7841 2.78592 22.1904 3.37956 21.4578 3.38027Z" fill="#CC3939"/>
<path d="M23.3175 15.2643V6.58622C23.3175 6.38574 23.1549 6.22308 22.9544 6.22308H19.9609C19.7604 6.22308 19.5978 6.38574 19.5978 6.58622V15.2298H20.324V6.94935H22.5913V15.2643H23.3175Z" fill="#CC3939"/>
<path d="M17.1884 16.8306V10.4195C17.1884 10.219 17.026 10.0563 16.8253 10.0563H13.832C13.6315 10.0563 13.4689 10.219 13.4689 10.4195V19.2557C13.4689 19.4564 13.6315 19.6189 13.832 19.6189H15.0375V18.8926H14.1951V10.7826H16.4621V16.8306H17.1884Z" fill="#CC3939"/>
<path d="M10.6965 13.9925H7.70298C7.5025 13.9925 7.33984 14.1552 7.33984 14.3557V19.2556C7.33984 19.4563 7.5025 19.6187 7.70298 19.6187H10.6965C10.897 19.6187 11.0596 19.4563 11.0596 19.2556V14.3557C11.0596 14.1552 10.897 13.9925 10.6965 13.9925ZM10.3333 18.8925H8.06611V14.7188H10.3333V18.8925Z" fill="#CC3939"/>
<path d="M4.56746 10.5282H1.57419C1.37371 10.5282 1.21106 10.6909 1.21106 10.8913V19.2555C1.21106 19.4562 1.37371 19.6186 1.57419 19.6186H4.56746C4.76794 19.6186 4.93059 19.4562 4.93059 19.2555V10.8913C4.93059 10.6909 4.76794 10.5282 4.56746 10.5282ZM4.20432 18.8924H1.93733V11.2545H4.20432V18.8924Z" fill="#CC3939"/>
<path d="M21.4135 27.9248C24.4791 27.9248 26.9643 25.4396 26.9643 22.374C26.9643 19.3084 24.4791 16.8232 21.4135 16.8232C18.3479 16.8232 15.8627 19.3084 15.8627 22.374C15.8662 25.4382 18.3493 27.9213 21.4135 27.9248ZM21.4135 17.5495C24.0781 17.5495 26.238 19.7094 26.238 22.374C26.2382 25.0384 24.0781 27.1986 21.4135 27.1986C18.7491 27.1986 16.5889 25.0387 16.5889 22.374C16.5918 19.7108 18.7502 17.5523 21.4135 17.5495Z" fill="#1BC47D"/>
<path d="M16.0522 27.792C19.0199 30.7363 23.8069 30.7363 26.7746 27.792C26.7855 27.7842 26.7959 27.7756 26.8058 27.7664C26.8148 27.7567 26.8233 27.7461 26.8311 27.7354C29.7752 24.7677 29.7752 19.9812 26.8311 17.0135C26.8231 17.0024 26.8146 16.992 26.8053 16.9821C26.7954 16.9729 26.785 16.9641 26.7739 16.9563C23.8062 14.0125 19.0199 14.0125 16.0524 16.9563C16.0413 16.9641 16.0309 16.9729 16.0208 16.9821C16.0118 16.992 16.003 17.0024 15.995 17.0135C13.0511 19.9812 13.0511 24.7677 15.995 27.7354C16.003 27.7461 16.0115 27.7567 16.0205 27.7664C16.0307 27.7756 16.0413 27.7842 16.0522 27.792ZM14.5235 22.7374H14.9054C15.1058 22.7374 15.2685 22.5747 15.2685 22.3742C15.2685 22.1738 15.1058 22.0111 14.9054 22.0111H14.5235C14.6056 20.434 15.2285 18.9332 16.2872 17.7615L16.5548 18.0292C16.6969 18.1689 16.9253 18.1679 17.0662 18.027C17.2071 17.8859 17.208 17.6577 17.0683 17.5154L16.8007 17.248C17.9726 16.1891 19.4731 15.5664 21.0503 15.4844V15.8662C21.0503 16.0667 21.2129 16.2293 21.4134 16.2293C21.6139 16.2293 21.7765 16.0667 21.7765 15.8662V15.4844C23.3537 15.5664 24.8544 16.1891 26.0261 17.248L25.7585 17.5154C25.6656 17.6069 25.6289 17.7414 25.6623 17.8674C25.6956 17.9935 25.7942 18.092 25.9202 18.1254C26.0462 18.1587 26.1807 18.1221 26.2722 18.0292L26.5396 17.7615C27.5985 18.9332 28.2212 20.434 28.3035 22.0111H27.9215C27.721 22.0111 27.5583 22.1738 27.5583 22.3742C27.5583 22.5747 27.721 22.7374 27.9215 22.7374H28.3035C28.2212 24.3145 27.5985 25.8153 26.5396 26.987L26.272 26.7193C26.1297 26.5808 25.9025 26.5824 25.762 26.7229C25.6216 26.8633 25.6199 27.0905 25.7585 27.2328L26.0261 27.5005C24.8544 28.5594 23.3537 29.1821 21.7765 29.2644V28.8823C21.7765 28.6818 21.6139 28.5192 21.4134 28.5192C21.2129 28.5192 21.0503 28.6818 21.0503 28.8823V29.2644C19.4731 29.1821 17.9724 28.5594 16.8007 27.5005L17.0683 27.2328C17.2069 27.0905 17.2052 26.8633 17.0648 26.7229C16.9243 26.5824 16.6971 26.5808 16.5548 26.7193L16.2872 26.987C15.2285 25.8153 14.6056 24.3145 14.5235 22.7374Z" fill="#1BC47D"/>
<path d="M19.5979 25.5523H20.2684V26.1107C20.2684 26.3115 20.431 26.4739 20.6315 26.4739C20.832 26.4739 20.9946 26.3115 20.9946 26.1107V25.5523H21.5904V26.1107C21.5904 26.3115 21.753 26.4739 21.9535 26.4739C22.1542 26.4739 22.3167 26.3115 22.3167 26.1107V25.484C22.9562 25.3015 23.438 24.7738 23.5616 24.1204C23.6855 23.4669 23.43 22.7995 22.9016 22.3957C23.43 21.9921 23.6855 21.3247 23.5616 20.6713C23.438 20.0181 22.9562 19.4901 22.3167 19.3076V18.6374C22.3167 18.4369 22.1542 18.2743 21.9535 18.2743C21.753 18.2743 21.5904 18.4369 21.5904 18.6374V19.2393H20.9946V18.6374C20.9946 18.4369 20.832 18.2743 20.6315 18.2743C20.431 18.2743 20.2684 18.4369 20.2684 18.6374V19.2393H19.5979C19.3974 19.2393 19.2347 19.402 19.2347 19.6024V25.1892C19.2347 25.3897 19.3974 25.5523 19.5979 25.5523ZM22.8661 23.7924C22.8654 24.3629 22.4032 24.8253 21.8325 24.8261H19.961V22.7591H21.8325C22.403 22.7598 22.8654 23.222 22.8661 23.7924ZM19.961 19.9656H21.8325C22.2037 19.9627 22.5479 20.1592 22.7342 20.48C22.9207 20.8011 22.9207 21.1973 22.7342 21.5181C22.5479 21.8392 22.2037 22.0356 21.8325 22.0326H19.961V19.9656Z" fill="#1BC47D"/>
</g>
<defs>
<clipPath id="clip0">
<rect width="30" height="30" fill="white"/>
</clipPath>
</defs>
</svg>
