<svg width="16" height="14" viewBox="0 0 16 14" fill="none" xmlns="http://www.w3.org/2000/svg">
<path d="M15.711 2.56131L14.3071 1.15746C14.1146 0.964824 13.8805 0.868469 13.6053 0.868469C13.3299 0.868469 13.0958 0.964824 12.9033 1.15746L6.13161 7.9394L3.09675 4.8942C2.90405 4.70149 2.67008 4.60525 2.3949 4.60525C2.11954 4.60525 1.88558 4.70149 1.69287 4.8942L0.289027 6.29809C0.0963182 6.49076 0 6.72479 0 7.00012C0 7.27522 0.0963182 7.50947 0.289027 7.70211L4.02573 11.4387L5.42969 12.8426C5.62229 13.0354 5.85632 13.1316 6.13161 13.1316C6.40679 13.1316 6.64082 13.0351 6.83353 12.8426L8.23745 11.4387L15.711 3.96526C15.9035 3.77255 16 3.53855 16 3.26323C16.0001 2.98805 15.9035 2.75401 15.711 2.56131Z" fill="white"/>
</svg>
