<svg width="30" height="30" viewBox="0 0 30 30" fill="none" xmlns="http://www.w3.org/2000/svg">
<g clip-path="url(#clip0)">
<path d="M21.5904 14.3624V9.7276C21.5904 9.60246 21.5265 9.4859 21.4209 9.41868C21.3153 9.35147 21.1828 9.34288 21.0693 9.3958L14.5457 12.4402L14.8554 13.1038L18.5147 11.3959V23.6801L14.3314 21.7281C13.044 21.1288 11.6913 20.6812 10.3007 20.3942V17.6277H9.56844V20.2579C8.58638 20.0948 7.59264 20.0128 6.59722 20.0121C6.01561 20.0114 5.54413 19.5399 5.54341 18.958V17.4602H4.81116V18.958C4.81211 19.9442 5.61135 20.7434 6.59722 20.7444C6.64108 20.7444 6.6847 20.7458 6.72833 20.7463V26.6975C6.72833 26.8999 6.89208 27.0636 7.09445 27.0636C8.86431 27.0617 10.2986 25.6275 10.3007 23.8576V21.1434C11.5838 21.4194 12.8319 21.838 14.022 22.3915L21.0693 25.6807C21.1828 25.7336 21.3153 25.7248 21.4209 25.6575C21.5265 25.5903 21.5904 25.4738 21.5904 25.3486V20.7138C23.1772 20.4957 24.3595 19.1399 24.3595 17.5381C24.3595 15.9363 23.1772 14.5805 21.5904 14.3624ZM9.56844 23.8576C9.56677 25.0821 8.67124 26.1219 7.46034 26.3047V20.767C8.16709 20.8028 8.87099 20.8809 9.56844 21.0013V23.8576ZM20.8581 24.7737L19.247 24.0219V11.0541L20.8581 10.3025V24.7737ZM21.5904 19.9725V15.1034C22.7691 15.3149 23.6272 16.3403 23.6272 17.5381C23.6272 18.7357 22.7691 19.7613 21.5904 19.9725Z" fill="#CC3939"/>
<path d="M27.7594 17.5384C27.7616 15.7094 26.6689 14.0568 24.9853 13.3422C24.865 13.29 24.7255 13.3062 24.6204 13.3851C24.5153 13.4637 24.4602 13.5927 24.4764 13.7231C24.4926 13.8535 24.5775 13.9653 24.6986 14.0158C26.1107 14.617 27.0272 16.0033 27.0272 17.5379C27.0272 19.0725 26.1107 20.4588 24.6986 21.06C24.5775 21.1105 24.4926 21.2223 24.4764 21.3527C24.4602 21.4831 24.5153 21.612 24.6204 21.6907C24.7255 21.7696 24.865 21.7858 24.9853 21.7336C26.6687 21.0192 27.7613 19.3669 27.7594 17.5384Z" fill="#CC3939"/>
<path d="M25.8895 11.3206C25.7038 11.2431 25.4902 11.3299 25.4113 11.5151C25.3324 11.7003 25.418 11.9144 25.6025 11.9945C27.825 12.9405 29.2676 15.1225 29.2676 17.5379C29.2676 19.9532 27.825 22.1352 25.6025 23.0813C25.4814 23.1321 25.3966 23.2436 25.3804 23.374C25.3644 23.5044 25.4192 23.6336 25.5243 23.7122C25.6297 23.7909 25.7689 23.8073 25.8895 23.7551C28.3821 22.6939 30.0001 20.2469 30.0001 17.5379C30.0001 14.8289 28.3821 12.3818 25.8895 11.3206Z" fill="#CC3939"/>
<path d="M7.68861 5.05972C4.59774 5.05996 2.09205 7.56565 2.09229 10.6563C2.09229 13.7472 4.59798 16.2528 7.68861 16.2528C10.7795 16.2528 13.2852 13.7472 13.2852 10.6563C13.2816 7.56684 10.7781 5.0633 7.68861 5.05972ZM7.68861 15.5206C5.00224 15.5206 2.8243 13.3427 2.82454 10.6563C2.82454 7.96968 5.00224 5.79198 7.68861 5.79198C10.3752 5.79198 12.5529 7.96991 12.5529 10.6563C12.5501 13.3417 10.3738 15.5177 7.68861 15.5206Z" fill="#1BC47D"/>
<path d="M13.1511 5.25088C13.1361 5.22824 13.1167 5.20893 13.0941 5.19391C10.1017 2.22532 5.27549 2.22532 2.2833 5.19391C2.27233 5.20178 2.26184 5.21036 2.25183 5.21942C2.24277 5.22943 2.23443 5.23968 2.22657 5.25065C-0.74227 8.24284 -0.74227 13.0692 2.22657 16.0617C2.24134 16.0841 2.26065 16.1034 2.2833 16.1182C5.27549 19.087 10.1019 19.087 13.0941 16.1182C13.1167 16.1032 13.1361 16.0838 13.1511 16.0612C16.1194 13.069 16.1194 8.24284 13.1511 5.25065V5.25088ZM14.2504 11.0224H14.6356C14.5527 12.6125 13.9246 14.1257 12.8574 15.307L12.5873 15.0372C12.4446 14.8944 12.2126 14.8944 12.0696 15.0374C11.9266 15.1802 11.9266 15.4121 12.0696 15.5552L12.3394 15.8247C11.1579 16.8921 9.64496 17.5202 8.05483 17.6029V17.218C8.05483 17.0156 7.89083 16.8519 7.6887 16.8519C7.48633 16.8519 7.32257 17.0156 7.32257 17.218V17.6029C5.73244 17.5202 4.2193 16.8921 3.03796 15.8247L3.30779 15.5549C3.45057 15.4119 3.45057 15.1802 3.30779 15.0372C3.16477 14.8942 2.93284 14.8942 2.78982 15.0372L2.51999 15.307C1.45259 14.1254 0.824741 12.6125 0.74179 11.0224H1.12675C1.32912 11.0224 1.49288 10.8584 1.49288 10.6563C1.49288 10.4541 1.32912 10.2902 1.12675 10.2902H0.74179C0.824741 8.70002 1.45259 7.18688 2.51999 6.00555L2.78982 6.27538C2.93284 6.41839 3.16477 6.41839 3.30779 6.27538C3.45081 6.13236 3.45057 5.90043 3.30779 5.75741L3.03796 5.48782C4.2193 4.42018 5.73244 3.79233 7.32257 3.70938V4.09458C7.32257 4.29671 7.48633 4.4607 7.6887 4.4607C7.89083 4.4607 8.05483 4.29671 8.05483 4.09458V3.70938C9.64496 3.79233 11.1581 4.42018 12.3394 5.48782L12.0696 5.75741C11.9266 5.90043 11.9266 6.13236 12.0696 6.27538C12.2126 6.41839 12.4446 6.41839 12.5873 6.27538L12.8574 6.00555C13.9248 7.18712 14.5527 8.70002 14.6356 10.2902H14.2504C14.0483 10.2902 13.8843 10.4541 13.8843 10.6563C13.8843 10.8584 14.0483 11.0224 14.2504 11.0224Z" fill="#1BC47D"/>
<path d="M8.59921 7.51701V6.88868C8.59921 6.68655 8.43521 6.52255 8.23308 6.52255C8.03094 6.52255 7.86695 6.68655 7.86695 6.88868V7.49579H7.26627V6.88868C7.26627 6.68655 7.10228 6.52255 6.90014 6.52255C6.69777 6.52255 6.53401 6.68655 6.53401 6.88868V7.49579H5.85801C5.65564 7.49579 5.49188 7.65955 5.49188 7.86192V13.4945C5.49188 13.6966 5.65564 13.8606 5.85801 13.8606H6.53401V14.4239C6.53401 14.626 6.69777 14.79 6.90014 14.79C7.10228 14.79 7.26627 14.626 7.26627 14.4239V13.8606H7.86695V14.4239C7.86695 14.626 8.03094 14.79 8.23308 14.79C8.43521 14.79 8.59921 14.626 8.59921 14.4239V13.8394C9.341 13.7147 9.88447 13.073 9.88542 12.321V11.8517C9.88542 11.3993 9.68615 10.9702 9.34076 10.6782C9.68615 10.3862 9.88542 9.95691 9.88542 9.50473V9.03563C9.88447 8.28335 9.341 7.64167 8.59921 7.51701ZM9.15317 11.8517V12.321C9.15269 12.7667 8.79133 13.1279 8.34582 13.1283H6.22414V11.0443H8.34582C8.79133 11.0448 9.15269 11.4059 9.15317 11.8517ZM6.22414 10.3121V8.22805H8.34582C8.79157 8.22853 9.15269 8.58989 9.15317 9.03563V9.50497C9.15269 9.95071 8.79133 10.3118 8.34582 10.3123L6.22414 10.3121Z" fill="#1BC47D"/>
<path d="M7.46027 25.6945V26.3047C8.67116 26.1218 9.5667 25.0821 9.56837 23.8576V23.2474C9.5667 24.4719 8.67116 25.5116 7.46027 25.6945Z" fill="#FBE3E3"/>
<path d="M5.5434 18.3478V18.9581C5.54387 19.5399 6.01536 20.0114 6.59721 20.0121C7.59262 20.0126 8.58636 20.0948 9.56842 20.2576V19.6474C8.58636 19.4846 7.59262 19.4024 6.59721 19.4019C6.01536 19.4012 5.54387 18.9297 5.5434 18.3478Z" fill="#FBE3E3"/>
<path d="M10.3007 19.7838V20.394C11.6913 20.6812 13.0441 21.1289 14.3315 21.7281L18.5148 23.6801V23.0699L14.3315 21.1179C13.0441 20.5186 11.6913 20.071 10.3007 19.7838Z" fill="#FBE3E3"/>
<path d="M19.2472 24.0219L20.8581 24.7737V24.1635L19.2472 23.4117V24.0219Z" fill="#FBE3E3"/>
<path d="M21.5903 19.3623V19.9725C22.8849 19.7418 23.7719 18.5376 23.6079 17.2328C23.4727 18.3071 22.6558 19.1695 21.5903 19.3623Z" fill="#FBE3E3"/>
</g>
<defs>
<clipPath id="clip0">
<rect width="30" height="30" fill="white"/>
</clipPath>
</defs>
</svg>
