<svg width="36" height="36" viewBox="0 0 36 36" fill="none" xmlns="http://www.w3.org/2000/svg">
<path fill-rule="evenodd" clip-rule="evenodd" d="M4 0C1.79086 0 0 1.79086 0 4V32C0 34.2091 1.79086 36 4 36H15.2902V23.9861H11.2918C10.9466 23.9861 10.6665 23.7063 10.6665 23.3608V18.3191C10.6665 17.9736 10.9463 17.6935 11.2918 17.6935H15.2902V14.2137C15.2902 9.62887 18.1775 6.66662 22.6452 6.66662L26.622 6.673C26.9668 6.67364 27.2463 6.95344 27.2463 7.29831V11.9798C27.2463 12.325 26.9665 12.6052 26.6213 12.6052L23.9424 12.6061C22.0955 12.6061 21.7577 13.3259 21.7577 14.7436V17.6935H26.4344C26.6003 17.6935 26.7598 17.7595 26.8769 17.8769C26.9939 17.9943 27.06 18.1532 27.06 18.3191L27.0581 23.3608C27.0581 23.7063 26.7783 23.9861 26.4328 23.9861H21.7577V36H32C34.2091 36 36 34.2091 36 32V4C36 1.79086 34.2091 0 32 0H4Z" fill="white"/>
</svg>
