<svg width="30" height="30" viewBox="0 0 30 30" fill="none" xmlns="http://www.w3.org/2000/svg">
<path d="M3.64941 14.9792C3.64941 12.2423 4.72529 9.64004 6.67679 7.65392C8.23621 6.08748 10.2593 5.06635 12.4457 4.74188V4.63263C9.823 4.71381 7.33064 5.79483 5.47903 7.65392C3.52753 9.64004 2.45166 12.2423 2.45166 14.9792C2.45166 20.6882 7.09623 25.3327 12.805 25.3327C13.0073 25.3327 13.2092 25.3269 13.4102 25.3154C7.97607 25.0071 3.64941 20.4893 3.64941 14.9792Z" fill="#FBE3E3"/>
<path d="M22.8134 16.705C22.6111 16.705 22.4111 16.7145 22.2134 16.7323C22.4735 16.7555 22.732 16.7941 22.9877 16.8477C22.9961 16.8013 23.0041 16.7545 23.0118 16.708C22.9461 16.7061 22.8799 16.705 22.8134 16.705Z" fill="#D4E1F4"/>
<path d="M23.6179 17.3609C23.7898 16.5786 23.8764 15.7802 23.8762 14.9792C23.8762 14.7808 23.7154 14.6199 23.5168 14.6199H13.1642V4.26723C13.1642 4.06885 13.0033 3.9079 12.8049 3.9079C9.86477 3.89784 7.04303 5.06448 4.96848 7.14792C2.88201 9.27136 1.73291 12.0526 1.73291 14.9792C1.73291 21.0844 6.69985 26.0514 12.8049 26.0514C13.8494 26.0526 14.8888 25.9075 15.8928 25.62L15.6942 24.9294C14.7547 25.1982 13.782 25.3341 12.8049 25.3327C7.09614 25.3327 2.45156 20.6882 2.45156 14.9794C2.45156 12.2426 3.52744 9.64005 5.47893 7.65393C7.33054 5.79483 9.8229 4.71381 12.4456 4.63264V14.9792C12.4456 15.1778 12.6065 15.3385 12.8049 15.3385H23.1514C23.1299 15.9669 23.0511 16.5919 22.9161 17.206L23.6179 17.3609Z" fill="#CC3939"/>
<path d="M27.8512 11.0717C27.8512 8.14497 26.7022 5.36369 24.6154 3.24025L24.611 3.23581C22.4878 1.14933 19.7065 0 16.7797 0C16.5811 0 16.4204 0.160948 16.4204 0.359326V11.0717C16.4204 11.2701 16.5811 11.4311 16.7797 11.4311H27.4919C27.6905 11.4311 27.8512 11.2701 27.8512 11.0717ZM25.8864 6.15276L21.3268 10.7124H17.6137L24.3361 3.98979C24.9411 4.64317 25.4618 5.37001 25.8864 6.15276ZM17.1391 6.45711L21.6545 1.94167C22.4401 2.36276 23.1697 2.88069 23.8264 3.48308L17.1391 10.1706V6.45711ZM20.9721 1.60785L17.1393 5.44113V0.724969C18.4617 0.770353 19.7631 1.07003 20.9721 1.60785ZM22.343 10.7124L26.2226 6.83282C26.7735 8.0549 27.0804 9.37266 27.1265 10.7124H22.343Z" fill="#CC3939"/>
<path d="M21.6158 18.5016C18.9368 18.5016 16.7649 20.6732 16.7649 23.3525C16.7649 26.0316 18.9368 28.2034 21.6158 28.2034C24.2948 28.2034 26.4667 26.0316 26.4667 23.3525C26.4637 20.6747 24.2937 18.5047 21.6158 18.5016ZM21.6158 27.4848C19.3335 27.4848 17.4835 25.6346 17.4835 23.3525C17.4835 21.0702 19.3335 19.2203 21.6158 19.2203C23.8981 19.2203 25.7481 21.0702 25.7481 23.3525C25.7455 25.6336 23.8969 27.4822 21.6158 27.4848Z" fill="#1BC47D"/>
<path d="M26.3382 18.6787C26.3307 18.6698 26.3244 18.6602 26.3162 18.6518C26.3078 18.6436 26.2982 18.6373 26.2893 18.63C23.7024 16.063 19.529 16.063 16.9419 18.63C16.933 18.6373 16.9237 18.6436 16.9152 18.6518C16.9068 18.6602 16.9007 18.6698 16.8933 18.6787C14.3263 21.2658 14.3263 25.439 16.8933 28.0261C16.9007 28.035 16.9068 28.0445 16.9152 28.053C16.9237 28.0612 16.9333 28.0675 16.9419 28.0747C19.529 30.6417 23.7024 30.6417 26.2893 28.0747C26.2982 28.0675 26.308 28.0612 26.3162 28.053C26.3244 28.0445 26.3307 28.035 26.3382 28.0261C28.9052 25.439 28.9052 21.2658 26.3382 18.6787ZM27.2506 23.7118H27.5334C27.4541 25.034 26.9324 26.2912 26.0521 27.281L25.8542 27.0831C25.7131 26.9469 25.489 26.9488 25.3505 27.0875C25.2118 27.226 25.2099 27.4501 25.3461 27.5912L25.5442 27.7891C24.5542 28.6692 23.297 29.1908 21.9748 29.2704V28.9875C21.9748 28.7892 21.8139 28.6282 21.6155 28.6282C21.4171 28.6282 21.2562 28.7892 21.2562 28.9875V29.2704C19.934 29.1908 18.6768 28.6692 17.6868 27.7891L17.8849 27.5912C18.0211 27.4501 18.019 27.226 17.8805 27.0875C17.7417 26.9488 17.5176 26.9469 17.3768 27.0831L17.1787 27.281C16.2986 26.291 15.7769 25.034 15.6976 23.7118H15.9804C16.1788 23.7118 16.3398 23.5509 16.3398 23.3525C16.3398 23.1539 16.1788 22.9932 15.9804 22.9932H15.6976C15.7769 21.671 16.2986 20.4138 17.1787 19.4238L17.3768 19.6217C17.5176 19.7588 17.7424 19.7574 17.8814 19.6184C18.0204 19.4792 18.022 19.2544 17.8849 19.1136L17.6868 18.9156C18.6768 18.0356 19.934 17.5139 21.2562 17.4344V17.7172C21.2562 17.9158 21.4171 18.0765 21.6155 18.0765C21.8139 18.0765 21.9748 17.9158 21.9748 17.7172V17.4344C23.297 17.5139 24.5542 18.0356 25.5442 18.9156L25.3461 19.1136C25.2532 19.2039 25.2162 19.3372 25.2492 19.4626C25.2822 19.5877 25.38 19.6858 25.5054 19.7185C25.6305 19.7515 25.7639 19.7145 25.8542 19.6217L26.0521 19.4238C26.9324 20.4138 27.4541 21.671 27.5334 22.9932H27.2506C27.0522 22.9932 26.8912 23.1539 26.8912 23.3525C26.8912 23.5509 27.0522 23.7118 27.2506 23.7118Z" fill="#1BC47D"/>
<path d="M22.4427 20.6241V20.1172C22.4427 19.9186 22.2817 19.7579 22.0834 19.7579C21.885 19.7579 21.724 19.9186 21.724 20.1172V20.5935H21.2978V20.1174C21.2978 19.9188 21.1368 19.7581 20.9385 19.7581C20.7401 19.7581 20.5791 19.9188 20.5791 20.1174V20.5935H20.0437C19.8453 20.5935 19.6843 20.7544 19.6843 20.9528V25.7899C19.6843 25.9885 19.8453 26.1492 20.0437 26.1492H20.5791V26.5879C20.5791 26.7865 20.7401 26.9472 20.9385 26.9472C21.1368 26.9472 21.2978 26.7865 21.2978 26.5879V26.1492H21.724V26.5879C21.724 26.7865 21.885 26.9472 22.0834 26.9472C22.2817 26.9472 22.4427 26.7865 22.4427 26.5879V26.1184C23.0862 25.9803 23.5462 25.4116 23.5471 24.7533V24.4081C23.5473 24.0125 23.3791 23.6356 23.0851 23.3715C23.3791 23.1071 23.5471 22.7305 23.5471 22.3349V21.9889C23.5462 21.3309 23.0862 20.7624 22.4427 20.6241ZM22.8284 24.4078V24.7531C22.828 25.1272 22.525 25.4301 22.1512 25.4304H20.403V23.7306H22.1512C22.525 23.7308 22.828 24.034 22.8284 24.4078ZM20.403 23.0119V21.3121H22.1512C22.5248 21.3126 22.8277 21.6153 22.8284 21.9889V22.3344C22.828 22.7083 22.525 23.0112 22.1512 23.0117L20.403 23.0119Z" fill="#1BC47D"/>
</svg>
