<svg width="30" height="30" viewBox="0 0 30 30" fill="none" xmlns="http://www.w3.org/2000/svg">
<g clip-path="url(#clip0)">
<path d="M21.1033 23.006C21.0438 23.006 20.9843 23.0038 20.9252 23.0007C20.899 22.9993 20.8731 22.9967 20.8469 22.9945C20.816 22.9922 20.785 22.9898 20.7541 22.9864C20.7184 22.9826 20.6827 22.9779 20.6472 22.9729C20.6289 22.9705 20.6103 22.9679 20.5922 22.965C20.5479 22.9579 20.5039 22.9503 20.4601 22.9412L20.4442 22.9379C19.0707 22.6496 18.0387 21.5107 17.8868 20.1156C17.8856 20.1049 17.8847 20.0942 17.8837 20.0832C17.8799 20.0435 17.8768 20.0033 17.8744 19.963C17.8737 19.9499 17.8728 19.9371 17.8723 19.924C17.8699 19.8731 17.8682 19.8221 17.8682 19.7707C17.8678 19.0616 18.1013 18.3723 18.5328 17.8096C17.7302 18.4206 17.2591 19.3713 17.2589 20.3801C17.2589 20.4315 17.2605 20.4824 17.2629 20.5333C17.2634 20.5464 17.2644 20.5593 17.2651 20.5724C17.2674 20.6126 17.2705 20.6528 17.2744 20.6926C17.2753 20.7035 17.2763 20.7142 17.2774 20.725C17.4293 22.12 18.4614 23.259 19.8348 23.5472L19.8508 23.5506C19.8946 23.5596 19.9386 23.5672 19.9829 23.5744C20.001 23.5772 20.0193 23.5798 20.0379 23.5822C20.0733 23.5872 20.109 23.592 20.1447 23.5958C20.1757 23.5991 20.2066 23.6015 20.2376 23.6039C20.2637 23.606 20.2897 23.6084 20.3159 23.6101C20.3749 23.6132 20.4344 23.6153 20.4939 23.6153C21.5027 23.6151 22.4536 23.1438 23.0646 22.3412C22.5019 22.7727 21.8126 23.0064 21.1033 23.006Z" fill="#FBE3E3"/>
<path d="M3.8744 10.5562L4.38116 9.76166C5.38349 8.18616 6.87116 6.97936 8.61995 6.3236C8.65851 6.31122 8.69469 6.29242 8.72706 6.2679C8.80514 6.20792 8.8556 6.1189 8.86679 6.02107C8.94105 5.37887 8.91511 4.72929 8.78967 4.09519C8.38073 3.86335 7.93134 3.71173 7.46576 3.64865C7.67832 4.42033 7.7402 5.22582 7.64809 6.02107C7.6369 6.1189 7.58644 6.20792 7.50836 6.2679C7.47599 6.29242 7.43981 6.31122 7.40125 6.3236C5.65246 6.97936 4.16479 8.18616 3.16246 9.76166L2.65594 10.5562C2.58739 10.659 2.47028 10.7188 2.34674 10.714H3.56544C3.68898 10.7188 3.80585 10.659 3.8744 10.5562Z" fill="#FBE3E3"/>
<path d="M6.69931 21.8296C6.70479 20.2755 6.13281 18.7748 5.09429 17.6187C4.62847 17.1105 4.24025 16.5364 3.94248 15.9146C3.88154 15.788 3.75253 15.7083 3.61186 15.7107H2.39316C2.53383 15.7083 2.66308 15.7878 2.72402 15.9146C3.02179 16.5364 3.40977 17.1105 3.87559 17.6187C4.91411 18.7748 5.48632 20.2755 5.48085 21.8296C5.48061 22.1836 5.76601 22.4713 6.11971 22.4744H7.33841C6.98447 22.4713 6.69931 22.1836 6.69931 21.8296Z" fill="#FBE3E3"/>
<path d="M1.94993 15.3803V11.0544C1.94993 10.8804 2.0718 10.7141 2.2458 10.7141H1.0271C0.853102 10.7141 0.731232 10.8804 0.731232 11.0544V15.3803C0.731232 15.5543 0.853102 15.7107 1.0271 15.7107H2.2458C2.0718 15.7107 1.94993 15.5543 1.94993 15.3803Z" fill="#FBE3E3"/>
<path d="M22.0782 19.6C22.0773 19.0533 21.7355 18.5653 21.222 18.3775V18.0148C21.222 17.8129 21.0585 17.6492 20.8564 17.6492C20.6546 17.6492 20.4908 17.8129 20.4908 18.0148V18.2971H20.3347V18.0148C20.3347 17.8129 20.1709 17.6492 19.9691 17.6492C19.7672 17.6492 19.6035 17.8129 19.6035 18.0148V18.2971H19.2752C19.0734 18.2971 18.9096 18.4606 18.9096 18.6627V22.4123C18.9096 22.6144 19.0734 22.778 19.2752 22.778H19.6035V23.031C19.6035 23.2331 19.7672 23.3966 19.9691 23.3966C20.1709 23.3966 20.3347 23.2331 20.3347 23.031V22.778H20.4908V23.031C20.4908 23.2331 20.6546 23.3966 20.8564 23.3966C21.0585 23.3966 21.222 23.2331 21.222 23.031V22.6975C21.6443 22.5442 21.9576 22.1836 22.0504 21.7442C22.143 21.3046 22.0023 20.8485 21.6781 20.5376C21.9338 20.2927 22.0782 19.954 22.0782 19.6ZM21.347 21.475C21.3465 21.7906 21.0909 22.0463 20.7753 22.0467H19.6408V20.9032H20.7753C21.0909 20.9037 21.3465 21.1594 21.347 21.475ZM19.6408 20.172V19.0283H20.7753C20.9809 19.0262 21.1721 19.1347 21.2754 19.3125C21.3789 19.4903 21.3789 19.71 21.2754 19.8878C21.1721 20.0656 20.9809 20.1739 20.7753 20.172H19.6408Z" fill="#1BC47D"/>
<path d="M7.50146 9.93C7.50407 10.2147 7.35364 10.4789 7.10728 10.6222C6.86092 10.7652 6.55696 10.7652 6.31061 10.6222C6.06425 10.4789 5.91381 10.2147 5.91643 9.93C5.91643 9.72792 5.75267 9.56439 5.55082 9.56439C5.34874 9.56439 5.18521 9.72792 5.18521 9.93C5.18164 10.4765 5.47132 10.9833 5.94428 11.2577C6.417 11.5319 7.00065 11.5319 7.47361 11.2577C7.94657 10.9833 8.23625 10.4765 8.23268 9.93C8.23268 9.72792 8.06915 9.56439 7.86707 9.56439C7.66522 9.56439 7.50146 9.72792 7.50146 9.93Z" fill="#1BC47D"/>
<path d="M23.5011 10.4774C23.2991 10.4774 23.1355 10.6412 23.1355 10.843C23.1343 11.6421 22.5469 12.319 21.7562 12.4328C21.2118 8.16852 17.2165 4.84733 12.3843 4.84733C11.8085 4.84757 11.2337 4.8916 10.6648 4.97896C9.83886 3.74288 8.45044 3.00048 6.96372 3C6.84781 3 6.73879 3.05498 6.66976 3.14829C6.60073 3.24136 6.58026 3.3618 6.6143 3.47272L6.71427 3.80001C6.91707 4.45863 6.99443 5.14939 6.9423 5.83633C5.13115 6.56089 3.59302 7.83552 2.54451 9.48029L2.14558 10.0989H1.02709C0.449871 10.0989 0 10.5933 0 11.1705V15.4964C0 16.0736 0.449871 16.558 1.02709 16.558H2.16533C2.49 17.1574 2.8818 17.7182 3.33286 18.2295C4.24998 19.2508 4.75483 20.5767 4.74936 21.9496C4.75007 22.7063 5.36299 23.3199 6.11968 23.3218H7.51714C8.27359 23.3206 8.88651 22.7072 8.88746 21.9508C8.8877 21.5978 9.17357 21.3117 9.52633 21.311H11.5676C11.7697 21.311 11.9333 21.1472 11.9333 20.9454C11.9333 20.7435 11.7697 20.5797 11.5676 20.5797H9.52633C8.76988 20.5809 8.15696 21.1943 8.15624 21.9508C8.15577 22.3038 7.87013 22.5899 7.51714 22.5906H6.11968C5.76573 22.5875 5.48058 22.2997 5.48058 21.9458C5.48605 20.3917 4.91407 18.8909 3.87556 17.7348C3.40974 17.2267 3.02152 16.6525 2.72375 16.0308C2.66281 15.9042 2.5338 15.8244 2.39313 15.8268H1.02709C0.85309 15.8268 0.73122 15.6704 0.73122 15.4964V11.1705C0.73122 10.9965 0.85309 10.8301 1.02709 10.8301H2.34671C2.47025 10.8349 2.58712 10.7752 2.65567 10.6723L3.16243 9.8778C4.16476 8.3023 5.65243 7.0955 7.40122 6.43973C7.43978 6.42736 7.47596 6.40855 7.50833 6.38403C7.5864 6.32405 7.63687 6.23503 7.64805 6.1372C7.74017 5.34195 7.67828 4.53647 7.46572 3.76478C9.30948 4.01804 10.6839 5.59236 10.6862 7.45349C10.6862 7.65558 10.85 7.8191 11.0518 7.8191C11.2537 7.8191 11.4175 7.65558 11.4175 7.45349C11.4179 6.83724 11.2896 6.22765 11.0407 5.664C11.4862 5.60735 11.9349 5.57879 12.3841 5.57831C17.1841 5.57831 21.089 9.09993 21.089 13.4285C21.0899 14.5776 20.8136 15.7102 20.2837 16.7299C20.2226 16.8463 20.2285 16.9862 20.2992 17.0969C20.3701 17.2076 20.4946 17.2719 20.6258 17.2652C20.7569 17.2585 20.8745 17.1819 20.9338 17.0648C21.5172 15.9415 21.8214 14.6943 21.8202 13.4285C21.8202 13.3392 21.8181 13.2504 21.8152 13.1619C22.9858 13.0164 23.8651 12.0224 23.8668 10.8428C23.8665 10.6409 23.703 10.4774 23.5011 10.4774Z" fill="#1BC47D"/>
<path d="M29.9998 21.4651C29.9986 20.6751 29.3573 20.036 28.5673 20.0372H24.4437C24.265 18.0263 22.5624 16.4185 20.4939 16.4185C20.3444 16.418 20.195 16.4261 20.0462 16.4423C19.9729 16.3213 19.882 16.2118 19.7767 16.1173C20.0802 15.8503 20.2545 15.4654 20.2545 15.061C20.2535 14.6823 20.1021 14.3195 19.8332 14.0527C19.5644 13.7859 19.2007 13.6371 18.822 13.639H12.4208C11.8285 13.6338 11.2954 13.9968 11.0828 14.5495C10.8702 15.1022 11.0231 15.7289 11.466 16.1219C11.1616 16.3927 10.9876 16.781 10.9883 17.1885C10.9888 17.596 11.1637 17.9837 11.4689 18.2539C11.1633 18.525 10.9881 18.9142 10.9881 19.3226C10.9881 19.7313 11.1633 20.1205 11.4689 20.3916C11.1633 20.6627 10.9881 21.0519 10.9881 21.4608C10.9881 21.8695 11.1633 22.2587 11.4689 22.5298C11.1604 22.8035 10.9852 23.197 10.9883 23.6093C10.9912 24.0218 11.1721 24.4126 11.4844 24.6818C11.1697 24.9472 10.9883 25.3378 10.9881 25.7494C10.9893 26.1276 11.1409 26.4896 11.4099 26.7557C11.6786 27.0216 12.0425 27.1697 12.4208 27.1666H18.822C19.4173 27.1735 19.9534 26.8072 20.1633 26.2499C20.3732 25.6927 20.2121 25.0638 19.7603 24.6761C19.8791 24.5742 19.98 24.4533 20.0588 24.3183C20.0802 24.3207 20.1016 24.3245 20.1228 24.3267C20.1735 24.3314 20.2242 24.3364 20.2752 24.3393C20.2885 24.34 20.3018 24.341 20.3152 24.3414C20.3747 24.3443 20.4344 24.3464 20.4942 24.3464C20.6398 24.3462 20.7853 24.3381 20.9297 24.3219C21.0021 24.4462 21.0928 24.5588 21.1987 24.6559C20.7634 25.0586 20.6175 25.6861 20.8307 26.2395C21.044 26.7929 21.5731 27.1604 22.1663 27.1666H28.5673C29.16 27.1618 29.6896 26.7955 29.9031 26.2426C30.1164 25.6896 29.9703 25.0624 29.5342 24.6609C29.8336 24.3871 30.0029 23.9994 30 23.5938C29.9972 23.1884 29.8224 22.8031 29.5192 22.5336C29.8251 22.2625 30 21.8736 29.9998 21.4651ZM29.2685 21.4692C29.2681 21.8562 28.9544 22.1697 28.5673 22.1699H24.036C24.2562 21.7317 24.3938 21.2566 24.4418 20.7684H28.5671C28.9544 20.7684 29.2681 21.0821 29.2685 21.4692ZM11.7193 15.071C11.7198 14.6839 12.0337 14.3705 12.4208 14.3702H18.822C19.2088 14.3702 19.5228 14.6839 19.5228 15.071C19.5228 15.458 19.2088 15.7717 18.822 15.7717H12.4208C12.0337 15.7715 11.7198 15.458 11.7193 15.071ZM18.822 16.5029C18.9717 16.5027 19.1176 16.5506 19.2383 16.6393C18.5154 16.8814 17.8851 17.2951 17.4143 17.9045H12.4208C12.0337 17.9045 11.72 17.5907 11.72 17.2037C11.72 16.8167 12.0337 16.5029 12.4208 16.5029H18.822ZM17.972 23.441C17.9725 23.4415 17.9732 23.441 17.9739 23.4415C18.0158 23.476 18.0584 23.5091 18.1017 23.5417C18.1144 23.5514 18.1272 23.5607 18.1398 23.5702C18.1724 23.594 18.2053 23.6174 18.2384 23.6402C18.5521 23.8585 18.8958 24.0299 19.2586 24.1496C19.1345 24.2486 18.9805 24.3026 18.822 24.3026H12.4208C12.0337 24.3026 11.72 23.9889 11.72 23.6019C11.72 23.2149 12.0337 22.9011 12.4208 22.9011H17.4296C17.5967 23.0944 17.778 23.2748 17.972 23.441ZM16.9495 22.1699H12.4208C12.0337 22.1699 11.72 21.8562 11.72 21.4692C11.72 21.0821 12.0337 20.7684 12.4208 20.7684H16.546C16.546 20.7684 16.546 20.7665 16.5462 20.7677C16.5477 20.7813 16.5491 20.7965 16.5503 20.8101C16.6003 21.2837 16.7355 21.7443 16.9495 22.1699ZM16.5446 20.0372H12.4208C12.0337 20.0372 11.72 19.7235 11.72 19.3364C11.72 18.9494 12.0337 18.6357 12.4208 18.6357H16.9409C16.7238 19.0746 16.5896 19.5497 16.5446 20.0372ZM18.822 26.4354H12.4208C12.0337 26.4354 11.72 26.1216 11.72 25.7346C11.72 25.3476 12.0337 25.0339 12.4208 25.0339H18.822C19.2088 25.0339 19.5228 25.3476 19.5228 25.7346C19.5228 26.1216 19.2088 26.4354 18.822 26.4354ZM20.3156 23.6102C20.2895 23.6088 20.2635 23.6062 20.2373 23.604C20.2064 23.6016 20.1754 23.5993 20.1445 23.5959C20.1088 23.5921 20.0733 23.5874 20.0379 23.5824C20.0195 23.58 20.001 23.5774 19.9826 23.5745C19.9384 23.5674 19.8943 23.5598 19.8508 23.5507L19.8346 23.5474C18.4612 23.2591 17.4293 22.1202 17.2775 20.7251C17.2763 20.7144 17.2753 20.7037 17.2741 20.6927C17.2703 20.653 17.2672 20.6127 17.2651 20.5725C17.2641 20.5594 17.2632 20.5466 17.2627 20.5335C17.2603 20.4825 17.2587 20.4316 17.2587 20.3802C17.2587 18.5933 18.707 17.1449 20.4939 17.1449C22.2805 17.1449 23.7289 18.5933 23.7289 20.3802C23.7289 22.1668 22.2805 23.6152 20.4939 23.6152C20.4344 23.6155 20.3749 23.6133 20.3156 23.6102ZM29.2685 25.7225C29.2693 26.1119 28.9567 26.4294 28.5673 26.4354H22.1663C21.805 26.4308 21.5048 26.1557 21.4686 25.796C21.4325 25.4366 21.6722 25.1072 22.0254 25.031C22.0718 25.0355 22.1187 25.0339 22.1663 25.0339H28.5673C28.6156 25.0339 28.6632 25.036 28.7101 25.0312C29.0358 25.1015 29.2683 25.3892 29.2685 25.7225ZM28.5673 24.3026H22.1663C22.1185 24.3026 22.0713 24.2931 22.0247 24.2976C21.9166 24.2743 21.8157 24.2258 21.7298 24.156C22.4519 23.9187 23.0834 23.4495 23.5566 22.9011H28.5673C28.9541 22.9009 29.2681 23.2139 29.2685 23.6007C29.2688 23.9354 29.0367 24.2255 28.7101 24.2986C28.6632 24.2938 28.6156 24.3026 28.5673 24.3026Z" fill="#CC3939"/>
</g>
<defs>
<clipPath id="clip0">
<rect width="30" height="30" fill="white"/>
</clipPath>
</defs>
</svg>
