<svg width="30" height="30" viewBox="0 0 30 30" fill="none" xmlns="http://www.w3.org/2000/svg">
<g clip-path="url(#clip0)">
<path d="M22.8715 3.54511C22.312 3.24233 21.6346 3.25645 21.0883 3.58191C20.542 3.90763 20.2075 4.4968 20.2075 5.13286V9.15142H21.9248V5.13286C21.9253 4.47008 22.2886 3.86074 22.8715 3.54511Z" fill="#D4E1F4"/>
<path d="M2.51622 23.3051V21.1728H0.799133V23.3051C0.799133 25.059 2.19176 26.4859 3.9033 26.4859H5.62064C3.90885 26.4859 2.51622 25.059 2.51622 23.3051Z" fill="#D4E1F4"/>
<path d="M8.3436 3.32756H6.62651C5.46986 3.33134 4.52976 4.26186 4.51438 5.41877L4.38959 20.4861H6.10692L6.23172 5.41852C6.24709 4.26186 7.18694 3.33134 8.3436 3.32756Z" fill="#D4E1F4"/>
<path d="M6.83255 8.85144H13.2055C13.4193 8.85144 13.5927 8.67799 13.5927 8.46421C13.5927 8.25043 13.4193 8.07698 13.2055 8.07698H6.83255C6.61876 8.07698 6.44531 8.25043 6.44531 8.46421C6.44531 8.67799 6.61876 8.85144 6.83255 8.85144Z" fill="#CC3939"/>
<path d="M14.4943 11.4244C14.4943 11.2106 14.3211 11.0372 14.1071 11.0372H10.119C9.90523 11.0372 9.73178 11.2106 9.73178 11.4244C9.73178 11.6382 9.90523 11.8116 10.119 11.8116H14.1071C14.3211 11.8116 14.4943 11.6382 14.4943 11.4244Z" fill="#CC3939"/>
<path d="M6.83255 11.8116H8.56703C8.78081 11.8116 8.95426 11.6382 8.95426 11.4244C8.95426 11.2106 8.78081 11.0372 8.56703 11.0372H6.83255C6.61876 11.0372 6.44531 11.2106 6.44531 11.4244C6.44531 11.6382 6.61876 11.8116 6.83255 11.8116Z" fill="#CC3939"/>
<path d="M3.84208 27.2854V27.2897H16.2262V27.2829C16.3008 27.2871 16.3757 27.2897 16.4511 27.2897C18.6391 27.2897 20.4389 25.4745 20.4628 23.2431C20.4651 23.0293 20.2934 22.8541 20.0796 22.8519C19.8659 22.8496 19.6906 23.021 19.6884 23.2348C19.669 25.0437 18.2168 26.5152 16.4491 26.5152C14.6639 26.5152 13.2118 25.0268 13.2118 23.1977V20.7982C13.2118 20.5844 13.0384 20.411 12.8246 20.411H4.41385L4.54469 5.58218C4.56058 4.38064 5.53723 3.41382 6.73901 3.41004H20.4664C19.9682 3.90543 19.6884 4.57905 19.6889 5.28167V11.1774C19.6889 11.3914 19.8623 11.5646 20.0761 11.5646C20.2899 11.5646 20.4633 11.3914 20.4633 11.1774V9.86392H24.5938C24.8076 9.86392 24.9811 9.69048 24.9811 9.47669V5.28167C24.9796 3.82097 23.7957 2.63734 22.335 2.63557C22.2916 2.63557 22.2488 2.63683 22.2059 2.63885V2.63557H6.73876C5.11294 2.64087 3.7914 3.94904 3.76998 5.57486L3.63939 20.411H0.387233C0.173448 20.411 0 20.5844 0 20.7982V23.1972C0 25.3959 1.70851 27.1941 3.84208 27.2854ZM24.2064 5.28167V9.08946H20.4631V5.28167C20.4631 4.24804 21.3008 3.41004 22.3347 3.41004C23.3684 3.41004 24.2064 4.24804 24.2064 5.28167ZM0.774466 21.1854H12.4373V23.1972C12.4343 24.5054 13.0535 25.7369 14.1053 26.5147H4.01174C2.22684 26.5147 0.774466 25.0263 0.774466 23.1972V21.1854Z" fill="#CC3939"/>
<path d="M16.8986 8.85144C17.1124 8.85144 17.2858 8.67799 17.2858 8.46421C17.2858 8.25043 17.1124 8.07698 16.8986 8.07698H14.7408C14.527 8.07698 14.3536 8.25043 14.3536 8.46421C14.3536 8.67799 14.527 8.85144 14.7408 8.85144H16.8986Z" fill="#CC3939"/>
<path d="M12.3645 14.2641H8.82824C8.61446 14.2641 8.44101 14.4376 8.44101 14.6513C8.44101 14.8651 8.61446 15.0386 8.82824 15.0386H12.3645C12.5786 15.0386 12.7518 14.8651 12.7518 14.6513C12.7518 14.4376 12.5786 14.2641 12.3645 14.2641Z" fill="#CC3939"/>
<path d="M6.83254 15.0386H7.27625C7.49003 15.0386 7.66348 14.8651 7.66348 14.6513C7.66348 14.4376 7.49003 14.2641 7.27625 14.2641H6.83254C6.61876 14.2641 6.44531 14.4376 6.44531 14.6513C6.44531 14.8651 6.61876 15.0386 6.83254 15.0386Z" fill="#CC3939"/>
<path d="M12.3645 17.4911H12.0552C11.8414 17.4911 11.6679 17.6645 11.6679 17.8783C11.6679 18.0921 11.8414 18.2655 12.0552 18.2655H12.3645C12.5785 18.2655 12.7517 18.0921 12.7517 17.8783C12.7517 17.6645 12.5785 17.4911 12.3645 17.4911Z" fill="#CC3939"/>
<path d="M6.83255 18.2655H10.5032C10.717 18.2655 10.8904 18.0921 10.8904 17.8783C10.8904 17.6645 10.717 17.4911 10.5032 17.4911H6.83255C6.61876 17.4911 6.44531 17.6645 6.44531 17.8783C6.44531 18.0921 6.61876 18.2655 6.83255 18.2655Z" fill="#CC3939"/>
<path d="M15.2962 12.7313C12.8543 15.1712 12.7941 19.1101 15.1596 21.6236C17.5253 24.1373 21.4604 24.316 24.044 22.0267L25.8882 23.8708L25.3633 24.3957C25.212 24.5467 25.212 24.792 25.3633 24.9433L27.4121 26.9919C28.0046 27.5831 28.9638 27.5826 29.5558 26.9909C30.1477 26.3989 30.1482 25.4394 29.557 24.847L27.5082 22.7984C27.3569 22.6471 27.1116 22.6471 26.9604 22.7984L26.4357 23.3232L24.5918 21.4793C26.8807 18.8955 26.702 14.9607 24.1882 12.5952C21.6747 10.2297 17.7361 10.2899 15.2962 12.7313ZM27.2341 23.6195L29.009 25.3943C29.2989 25.6842 29.2989 26.1541 29.009 26.444C28.719 26.7337 28.2491 26.7337 27.9595 26.444L26.1846 24.6692L27.2341 23.6195ZM23.7788 21.2136C21.588 23.4024 18.0379 23.4014 15.8483 21.2114C13.6588 19.0213 13.6588 15.4712 15.8483 13.2809C18.0379 11.0909 21.588 11.0899 23.7788 13.2786C25.9693 15.4702 25.9693 19.0223 23.7788 21.2139V21.2136Z" fill="#1BC47D"/>
<path d="M19.5585 13.2617V13.9036H19.4393V13.2617C19.4393 13.0479 19.2659 12.8745 19.0521 12.8745C18.8383 12.8745 18.6648 13.0479 18.6648 13.2617V13.9036H17.875C17.6612 13.9036 17.4878 14.077 17.4878 14.2908V20.2483C17.4878 20.4621 17.6612 20.6355 17.875 20.6355H18.6648V21.231C18.6648 21.4448 18.8383 21.6182 19.0521 21.6182C19.2659 21.6182 19.4393 21.4448 19.4393 21.231V20.6355H19.5585V21.231C19.5585 21.4448 19.7317 21.6182 19.9458 21.6182C20.1596 21.6182 20.333 21.4448 20.333 21.231V20.6335C21.1229 20.6025 21.8086 20.0794 22.0471 19.3256C22.2858 18.5721 22.0259 17.7494 21.3979 17.2697C22.0261 16.7897 22.2858 15.9671 22.0473 15.2135C21.8086 14.4597 21.1229 13.9366 20.333 13.9056V13.2617C20.333 13.0479 20.1596 12.8745 19.9458 12.8745C19.7317 12.8745 19.5585 13.0479 19.5585 13.2617ZM21.3601 18.7589C21.3593 19.3672 20.8665 19.8603 20.2581 19.8611H18.2622V17.6569H20.2581C20.8665 17.6577 21.3593 18.1505 21.3601 18.7589ZM21.3601 15.7803C21.3593 16.3886 20.8665 16.8815 20.2581 16.8825H18.2622V14.6781H20.2581C20.8665 14.6788 21.3593 15.1719 21.3601 15.7803Z" fill="#1BC47D"/>
</g>
<defs>
<clipPath id="clip0">
<rect width="30" height="30" fill="white"/>
</clipPath>
</defs>
</svg>
