<svg width="24" height="22" viewBox="0 0 24 22" fill="none" xmlns="http://www.w3.org/2000/svg">
<path d="M12.0001 11.8882C10.6868 11.8882 9.61841 12.8676 9.61841 14.0715C9.61841 14.6685 9.88911 15.2458 10.3618 15.6566V17.6278C10.3618 18.456 11.0968 19.1297 12.0002 19.1297C12.9036 19.1297 13.6386 18.456 13.6386 17.6278V15.6566C14.111 15.2461 14.3819 14.6687 14.3819 14.0715C14.3818 12.8676 13.3133 11.8882 12.0001 11.8882ZM12.8428 14.8911C12.6155 15.0875 12.485 15.3621 12.485 15.6444V17.6278C12.485 17.873 12.2675 18.0723 12.0001 18.0723C11.7327 18.0723 11.5152 17.873 11.5152 17.6278V15.6444C11.5152 15.3621 11.3848 15.0876 11.1575 14.8912C10.9088 14.6763 10.7718 14.3852 10.7718 14.0715C10.7718 13.4507 11.3228 12.9456 12 12.9456C12.6772 12.9456 13.2282 13.4507 13.2282 14.0715C13.2283 14.3852 13.0914 14.6763 12.8428 14.8911Z" fill="#515151"/>
<path d="M18.9836 9.01811H17.2535V4.81559C17.2535 2.16025 14.8969 0 12.0003 0C9.10357 0 6.74693 2.16025 6.74693 4.81559V9.01811H5.01682C4.06278 9.01811 3.28662 9.72963 3.28662 10.6041V20.4139C3.28662 21.2885 4.06278 22 5.01682 22H18.9836C19.9377 22 20.7138 21.2885 20.7138 20.4139V10.6042C20.7138 9.72963 19.9377 9.01811 18.9836 9.01811ZM7.90034 4.81559C7.90034 2.74334 9.73953 1.05737 12.0002 1.05737C14.2609 1.05737 16.1 2.74334 16.1 4.81559V9.01811H7.90034V4.81559ZM19.5604 20.414C19.5604 20.7055 19.3016 20.9427 18.9836 20.9427H5.01682C4.69882 20.9427 4.44007 20.7055 4.44007 20.414V10.6042C4.44007 10.3127 4.69882 10.0755 5.01682 10.0755H18.9836C19.3016 10.0755 19.5604 10.3126 19.5604 10.6042V20.414Z" fill="#515151"/>
</svg>
