<svg width="104" height="66" viewBox="0 0 104 66" fill="none" xmlns="http://www.w3.org/2000/svg">
<path d="M70.2767 37.7914H62.2586C61.7869 37.7914 61.3152 38.263 61.0794 38.7347L57.7778 59.4875C57.7778 59.9592 58.0137 60.195 58.4853 60.195H62.7302C63.2019 60.195 63.4377 59.9592 63.4377 59.4875L64.381 53.5918C64.381 53.1202 64.8527 52.6485 65.5601 52.6485H68.1542C73.5783 52.6485 76.644 50.0544 77.3515 44.8662C77.8232 42.7438 77.3515 40.8571 76.4082 39.678C74.9932 38.4989 72.8708 37.7914 70.2767 37.7914ZM71.22 45.5737C70.7483 48.4036 68.6259 48.4036 66.5034 48.4036H65.0885L66.0318 42.9796C66.0318 42.7438 66.2676 42.5079 66.7393 42.5079H67.2109C68.6259 42.5079 70.0409 42.5079 70.7484 43.4512C71.22 43.6871 71.22 44.3946 71.22 45.5737Z" fill="#139AD6"/>
<path d="M12.4989 37.7914H4.48073C4.00907 37.7914 3.53741 38.263 3.30159 38.7347L0 59.4875C0 59.9592 0.23583 60.195 0.707486 60.195H4.48073C4.95238 60.195 5.42404 59.7234 5.65986 59.2517L6.60318 53.5918C6.60318 53.1202 7.07483 52.6485 7.78232 52.6485H10.3764C15.8005 52.6485 18.8662 50.0544 19.5737 44.8662C20.0454 42.7438 19.5737 40.8571 18.6304 39.678C17.2154 38.4989 15.3288 37.7914 12.4989 37.7914ZM13.4422 45.5737C12.9705 48.4036 10.8481 48.4036 8.72563 48.4036H7.54649L8.4898 42.9796C8.4898 42.7438 8.72562 42.5079 9.19728 42.5079H9.66894C11.0839 42.5079 12.4989 42.5079 13.2064 43.4512C13.4422 43.6871 13.678 44.3946 13.4422 45.5737Z" fill="#263B80"/>
<path d="M36.7889 45.338H33.0157C32.7798 45.338 32.3082 45.5738 32.3082 45.8096L32.0723 46.9888L31.8365 46.5171C30.8932 45.338 29.2424 44.8663 27.3558 44.8663C23.1109 44.8663 19.3376 48.1679 18.6302 52.6486C18.1585 55.0069 18.866 57.1294 20.0451 58.5443C21.2243 59.9593 22.8751 60.431 24.9975 60.431C28.5349 60.431 30.4215 58.3085 30.4215 58.3085L30.1857 59.4876C30.1857 59.9593 30.4215 60.1951 30.8932 60.1951H34.4306C34.9023 60.1951 35.3739 59.7235 35.6098 59.2518L37.7322 46.0455C37.4964 45.8096 37.0247 45.338 36.7889 45.338ZM31.3649 52.8845C30.8932 55.0069 29.2424 56.6577 26.8841 56.6577C25.705 56.6577 24.7617 56.1861 24.29 55.7144C23.8184 55.0069 23.5825 54.0636 23.5825 52.8845C23.8184 50.762 25.705 49.1112 27.8274 49.1112C29.0066 49.1112 29.7141 49.5829 30.4215 50.0545C31.129 50.762 31.3649 51.9412 31.3649 52.8845Z" fill="#263B80"/>
<path d="M94.3309 45.3379H90.5576C90.3218 45.3379 89.8502 45.5737 89.8502 45.8095L89.6143 46.9887L89.3785 46.517C88.4352 45.3379 86.7844 44.8662 84.8978 44.8662C80.6529 44.8662 76.8796 48.1678 76.1722 52.6485C75.7005 55.0068 76.408 57.1293 77.5871 58.5442C78.7663 59.9592 80.4171 60.4308 82.5395 60.4308C86.0769 60.4308 87.9635 58.3084 87.9635 58.3084L87.7277 59.4875C87.7277 59.9592 87.9635 60.195 88.4352 60.195H91.9726C92.4443 60.195 92.9159 59.7234 93.1517 59.2517L95.2742 46.0453C95.0384 45.8095 94.8025 45.3379 94.3309 45.3379ZM88.9068 52.8844C88.4352 55.0068 86.7844 56.6576 84.4261 56.6576C83.247 56.6576 82.3037 56.1859 81.832 55.7143C81.3604 55.0068 81.1245 54.0635 81.1245 52.8844C81.3604 50.7619 83.247 49.1111 85.3694 49.1111C86.5486 49.1111 87.2561 49.5828 87.9635 50.0544C88.9068 50.7619 89.1427 51.941 88.9068 52.8844Z" fill="#139AD6"/>
<path d="M57.3062 45.338H53.2971C52.8255 45.338 52.5896 45.5738 52.3538 45.8097L47.1656 53.8278L44.8073 46.2813C44.5715 45.8097 44.3357 45.5738 43.6282 45.5738H39.8549C39.3833 45.5738 39.1475 46.0455 39.1475 46.5172L43.3924 59.016L39.3833 64.6759C39.1475 65.1475 39.3833 65.855 39.8549 65.855H43.6282C44.0998 65.855 44.3357 65.6192 44.5715 65.3834L57.542 46.753C58.2495 46.0455 57.7778 45.338 57.3062 45.338Z" fill="#263B80"/>
<path d="M98.8118 38.4987L95.5103 59.7232C95.5103 60.1949 95.7461 60.4307 96.2177 60.4307H99.5193C99.991 60.4307 100.463 59.9591 100.698 59.4874L104 38.7346C104 38.2629 103.764 38.0271 103.293 38.0271H99.5193C99.2835 37.7913 99.0477 38.0271 98.8118 38.4987Z" fill="#139AD6"/>
<path d="M59.7823 2.82993C58.1315 0.943308 55.0657 0 50.8208 0H39.0295C38.322 0 37.6145 0.707479 37.3787 1.41496L32.6621 32.3084C32.6621 33.0159 33.1338 33.4875 33.6054 33.4875H40.9161L42.8027 21.932V22.4036C43.0385 21.6961 43.746 20.9887 44.4535 20.9887H47.9909C54.8299 20.9887 60.0181 18.1587 61.6689 10.3764C61.6689 10.1406 61.6689 9.90476 61.6689 9.66893C61.4331 9.66893 61.4331 9.66893 61.6689 9.66893C61.9047 6.60317 61.4331 4.71655 59.7823 2.82993Z" fill="#263B80"/>
<path d="M61.433 9.66882C61.433 9.90465 61.433 10.1405 61.433 10.3763C59.7822 18.3944 54.594 20.9885 47.755 20.9885H44.2176C43.5101 20.9885 42.8026 21.696 42.5668 22.4035L40.2085 36.789C40.2085 37.2607 40.4443 37.7323 41.1518 37.7323H47.2833C47.9908 37.7323 48.6983 37.2607 48.6983 36.5532V36.3173L49.8774 29.0067V28.535C49.8774 27.8276 50.5849 27.3559 51.2924 27.3559H52.2357C58.1314 27.3559 62.848 24.9976 64.0271 17.9228C64.4987 15.0929 64.2629 12.4988 62.848 10.848C62.6121 10.3763 62.1405 9.90465 61.433 9.66882Z" fill="#139AD6"/>
<path d="M59.7823 8.96151C59.5465 8.96151 59.3107 8.72568 59.0748 8.72568C58.839 8.72568 58.6032 8.72568 58.3674 8.48985C57.424 8.25402 56.4807 8.25403 55.3016 8.25403H46.1043C45.8685 8.25403 45.6327 8.25402 45.3968 8.48985C44.9252 8.72568 44.6894 9.19734 44.6894 9.66899L42.8027 21.932V22.4037C43.0386 21.6962 43.746 20.9887 44.4535 20.9887H47.9909C54.8299 20.9887 60.0182 18.1588 61.6689 10.3765C61.6689 10.1406 61.6689 9.90482 61.9048 9.66899C61.4331 9.43316 61.1973 9.19734 60.7256 9.19734C60.0182 8.96151 60.0182 8.96151 59.7823 8.96151Z" fill="#232C65"/>
</svg>
