<svg width="16" height="15" viewBox="0 0 16 15" fill="none" xmlns="http://www.w3.org/2000/svg">
<path d="M14 6.1C14.38 6.1 14.69 6.23 14.93 6.49C15.19 6.73 15.32 7.04 15.32 7.42C15.32 7.8 15.19 8.12 14.93 8.38C14.69 8.62 14.38 8.74 14 8.74H9.32V13.39C9.32 13.77 9.19 14.09 8.93 14.35C8.69 14.61 8.38 14.74 8 14.74C7.62 14.74 7.3 14.61 7.04 14.35C6.8 14.09 6.68 13.77 6.68 13.39V8.74H2C1.62 8.74 1.3 8.62 1.04 8.38C0.8 8.12 0.68 7.8 0.68 7.42C0.68 7.04 0.8 6.73 1.04 6.49C1.3 6.23 1.62 6.1 2 6.1H6.68V1.42C6.68 1.04 6.8 0.73 7.04 0.489999C7.3 0.229999 7.62 0.0999991 8 0.0999991C8.38 0.0999991 8.69 0.229999 8.93 0.489999C9.19 0.73 9.32 1.04 9.32 1.42V6.1H14Z" fill="#1BC47D"/>
</svg>
