<svg width="95" height="118" viewBox="0 0 95 118" fill="none" xmlns="http://www.w3.org/2000/svg">
<g clip-path="url(#clip0)">
<path d="M61.6137 0H10.2915V95H84.7082V23.0945L61.6137 0ZM62.5415 5.4055L79.3027 22.1667H62.5415V5.4055ZM13.4582 91.8333V3.16667H59.3748V25.3333H81.5415V91.8333H13.4582Z" fill="#515151"/>
</g>
<circle cx="23" cy="97" r="21" fill="#1BC47D"/>
<path d="M18.0003 96.456L18.0287 95.2341C18.04 94.7525 18.4072 94.3543 18.8866 94.3033L24.9071 93.6645C25.477 93.6041 25.9723 94.053 25.9676 94.6253L25.8712 106.239L26.8937 106.295C27.4025 106.322 27.8007 106.743 27.8007 107.251V108.263C27.8007 108.791 27.3733 109.219 26.845 109.221L19.1634 109.249C18.6275 109.251 18.1941 108.815 18.2006 108.279L18.2129 107.277C18.2189 106.772 18.6163 106.358 19.1212 106.331L20.2109 106.274L20.2234 97.4765L18.9293 97.436C18.4027 97.4198 17.988 96.9821 18.0003 96.456Z" fill="white"/>
<path d="M26.0979 88.416C26.0979 86.5294 24.5671 85 22.6787 85C20.7906 85 19.2598 86.5294 19.2598 88.416C19.2598 90.3028 20.7906 91.8322 22.6787 91.8322C24.5671 91.8322 26.0979 90.3028 26.0979 88.416Z" fill="white"/>
<path d="M26.8936 106.295L25.8711 106.239L25.9675 94.6256C25.9722 94.053 25.4766 93.6041 24.9068 93.6645L23.0394 93.8626C23.2652 94.0388 23.4119 94.3133 23.4094 94.6256L23.313 106.239L24.3355 106.295C24.8441 106.322 25.2425 106.743 25.2425 107.252V108.263C25.2425 108.791 24.8151 109.22 24.2867 109.221L19.0361 109.241C19.0779 109.246 19.1198 109.25 19.163 109.25L26.8448 109.222C27.3732 109.22 27.8004 108.791 27.8004 108.263V107.252C27.8006 106.743 27.4022 106.322 26.8936 106.295Z" fill="#FCFCFC"/>
<path d="M22.6785 85C22.2263 85 21.7949 85.0887 21.3994 85.2481C22.654 85.7542 23.5396 86.9815 23.5396 88.416C23.5396 89.8507 22.654 91.078 21.3994 91.5841C21.7949 91.7435 22.2263 91.8322 22.6785 91.8322C24.5668 91.8322 26.0977 90.3026 26.0977 88.416C26.0977 86.5294 24.5668 85 22.6785 85Z" fill="#FCFCFC"/>
<defs>
<clipPath id="clip0">
<rect width="95" height="95" fill="white"/>
</clipPath>
</defs>
</svg>
