<svg width="30" height="30" viewBox="0 0 30 30" fill="none" xmlns="http://www.w3.org/2000/svg">
<g clip-path="url(#clip0)">
<path d="M15.919 26.4692C14.2982 26.4701 12.8148 25.5584 12.0833 24.1119C11.352 22.6654 11.497 20.9303 12.4586 19.6253C11.0961 20.627 10.4478 22.3346 10.8026 23.9881C11.1571 25.6416 12.4489 26.9331 14.1021 27.2879C15.7556 27.6425 17.4635 26.9942 18.4649 25.6316C17.728 26.1764 16.8354 26.4701 15.919 26.4692Z" fill="#D4E1F4"/>
<path d="M14.7035 13.2325C14.5056 13.2325 14.3455 13.3929 14.3455 13.5906V14.9171C14.3455 15.115 14.5056 15.2751 14.7035 15.2751C14.9012 15.2751 15.0616 15.115 15.0616 14.9171V13.5906C15.0616 13.3929 14.9012 13.2325 14.7035 13.2325Z" fill="#CC3939"/>
<path d="M15.0616 12.1037C15.0616 11.9058 14.9012 11.7456 14.7035 11.7456C14.5056 11.7456 14.3455 11.9058 14.3455 12.1037V12.7147C14.3455 12.9124 14.5056 13.0728 14.7035 13.0728C14.9012 13.0728 15.0616 12.9124 15.0616 12.7147V12.1037Z" fill="#CC3939"/>
<path d="M15.0616 9.14149C15.0616 8.9438 14.9012 8.78342 14.7035 8.78342C14.5056 8.78342 14.3455 8.9438 14.3455 9.14149V11.0407C14.3455 11.2384 14.5056 11.3988 14.7035 11.3988C14.9012 11.3988 15.0616 11.2384 15.0616 11.0407V9.14149Z" fill="#CC3939"/>
<path d="M12.9104 13.9132C12.7128 13.9132 12.5524 14.0736 12.5524 14.2713V14.3776C12.5524 14.5753 12.7128 14.7357 12.9104 14.7357C13.1081 14.7357 13.2685 14.5753 13.2685 14.3776V14.2713C13.2685 14.0736 13.1081 13.9132 12.9104 13.9132Z" fill="#CC3939"/>
<path d="M13.2685 10.0456C13.2685 9.84789 13.1081 9.6875 12.9104 9.6875C12.7128 9.6875 12.5524 9.84789 12.5524 10.0456V13.1607C12.5524 13.3586 12.7128 13.5188 12.9104 13.5188C13.1081 13.5188 13.2685 13.3586 13.2685 13.1607V10.0456Z" fill="#CC3939"/>
<path d="M16.3776 12.0291C16.1797 12.0291 16.0195 12.1895 16.0195 12.3872V13.6144C16.0195 13.812 16.1797 13.9724 16.3776 13.9724C16.5753 13.9724 16.7357 13.812 16.7357 13.6144V12.3872C16.7357 12.1895 16.5753 12.0291 16.3776 12.0291Z" fill="#CC3939"/>
<path d="M16.7357 9.54804C16.7357 9.35012 16.5753 9.18997 16.3776 9.18997C16.1797 9.18997 16.0195 9.35012 16.0195 9.54804V11.2659C16.0195 11.4636 16.1797 11.624 16.3776 11.624C16.5753 11.624 16.7357 11.4636 16.7357 11.2659V9.54804Z" fill="#CC3939"/>
<path d="M11.4743 5.57874C11.3755 5.68435 11.3499 5.83914 11.4095 5.97108C11.469 6.10279 11.6021 6.18602 11.7469 6.18136L12.525 6.15665L12.552 9.19441C12.5539 9.39093 12.7136 9.54922 12.9101 9.54922H12.9134C13.1111 9.54735 13.27 9.3858 13.2682 9.18788L13.2379 5.78389C13.2369 5.68738 13.1973 5.59553 13.1278 5.52862C13.0584 5.46195 12.9649 5.42605 12.8684 5.42908L12.5882 5.43794L14.6412 3.25082L16.8284 5.3039L16.3661 5.31835C16.1728 5.32465 16.0192 5.48317 16.0194 5.67642V8.58434C16.0194 8.78226 16.1798 8.94241 16.3775 8.94241C16.5752 8.94241 16.7356 8.78226 16.7356 8.58434V6.02353L17.7149 5.99253C17.8597 5.98787 17.9874 5.89672 18.0385 5.76128C18.0895 5.62583 18.0541 5.47291 17.9487 5.37383L14.8702 2.4841C14.7259 2.34866 14.4993 2.35588 14.3641 2.50018L11.4743 5.57874Z" fill="#CC3939"/>
<path d="M21.865 15.6434C21.6671 15.6434 21.507 15.8036 21.507 16.0015V17.9009C21.507 18.0988 21.6671 18.259 21.865 18.259C22.0627 18.259 22.2231 18.0988 22.2231 17.9009V16.0015C22.2231 15.8036 22.0627 15.6434 21.865 15.6434Z" fill="#CC3939"/>
<path d="M22.2231 11.2034C22.2231 11.0057 22.0627 10.8453 21.865 10.8453C21.6671 10.8453 21.507 11.0057 21.507 11.2034V14.6759C21.507 14.8736 21.6671 15.034 21.865 15.034C22.0627 15.034 22.2231 14.8736 22.2231 14.6759V11.2034Z" fill="#CC3939"/>
<path d="M22.2231 9.71659C22.2231 9.51867 22.0627 9.35852 21.865 9.35852C21.6671 9.35852 21.507 9.51867 21.507 9.71659V10.3276C21.507 10.5253 21.6671 10.6857 21.865 10.6857C22.0627 10.6857 22.2231 10.5253 22.2231 10.3276V9.71659Z" fill="#CC3939"/>
<path d="M22.2231 6.75437C22.2231 6.55669 22.0627 6.3963 21.865 6.3963C21.6671 6.3963 21.507 6.55669 21.507 6.75437V8.6536C21.507 8.85128 21.6671 9.01167 21.865 9.01167C22.0627 9.01167 22.2231 8.85128 22.2231 8.6536V6.75437Z" fill="#CC3939"/>
<path d="M20.0719 11.5261C19.8743 11.5261 19.7139 11.6865 19.7139 11.8842V13.7808C19.7139 13.9785 19.8743 14.1389 20.0719 14.1389C20.2696 14.1389 20.43 13.9785 20.43 13.7808V11.8842C20.43 11.6865 20.2696 11.5261 20.0719 11.5261Z" fill="#CC3939"/>
<path d="M20.43 7.65845C20.43 7.46077 20.2696 7.30038 20.0719 7.30038C19.8743 7.30038 19.7139 7.46077 19.7139 7.65845V10.7736C19.7139 10.9715 19.8743 11.1317 20.0719 11.1317C20.2696 11.1317 20.43 10.9715 20.43 10.7736V7.65845Z" fill="#CC3939"/>
<path d="M23.8969 10.0001C23.8969 9.80238 23.7365 9.642 23.5389 9.642C23.3409 9.642 23.1808 9.80238 23.1808 10.0001V13.8164C23.1808 14.0141 23.3409 14.1745 23.5389 14.1745C23.7365 14.1745 23.8969 14.0141 23.8969 13.8164V10.0001Z" fill="#CC3939"/>
<path d="M23.8969 15.2257C23.8969 15.0278 23.7365 14.8676 23.5389 14.8676C23.3409 14.8676 23.1808 15.0278 23.1808 15.2257V18.5507C23.1808 18.7486 23.3409 18.9087 23.5389 18.9087C23.7365 18.9087 23.8969 18.7486 23.8969 18.5507V15.2257Z" fill="#CC3939"/>
<path d="M23.5389 19.6129C23.3409 19.6129 23.1808 19.7733 23.1808 19.971V20.1789C23.1808 20.3766 23.3409 20.537 23.5389 20.537C23.7365 20.537 23.8969 20.3766 23.8969 20.1789V19.971C23.8969 19.7733 23.7365 19.6129 23.5389 19.6129Z" fill="#CC3939"/>
<path d="M23.8969 7.16093C23.8969 6.96301 23.7365 6.80286 23.5389 6.80286C23.3409 6.80286 23.1808 6.96301 23.1808 7.16093V8.87878C23.1808 9.07646 23.3409 9.23685 23.5389 9.23685C23.7365 9.23685 23.8969 9.07646 23.8969 8.87878V7.16093Z" fill="#CC3939"/>
<path d="M23.8971 3.63642L24.8764 3.60518C25.0209 3.60052 25.1487 3.50937 25.1997 3.37393C25.2508 3.23849 25.2156 3.08579 25.1102 2.98672L22.0317 0.0969818C21.8874 -0.03846 21.6608 -0.0312334 21.5256 0.113067L18.6358 3.19163C18.537 3.29723 18.5114 3.45202 18.571 3.58397C18.6305 3.71568 18.7636 3.7989 18.9084 3.79424L19.687 3.76953L19.7135 6.33057C19.7156 6.52686 19.8753 6.68491 20.0716 6.68491H20.0753C20.2733 6.68281 20.4318 6.52103 20.4299 6.32311L20.3994 3.39631C20.3984 3.30003 20.3588 3.20841 20.2891 3.14174C20.2196 3.07507 20.1262 3.03917 20.0301 3.0422L19.7499 3.05106L21.8027 0.863941L23.9899 2.91702L23.5278 2.93147C23.3343 2.93776 23.1809 3.09628 23.1809 3.28954V6.19723C23.1809 6.39514 23.3413 6.5553 23.539 6.5553C23.7367 6.5553 23.8971 6.39514 23.8971 6.19723V3.63642Z" fill="#CC3939"/>
<path d="M7.8429 17.9009C7.8429 18.0988 8.00328 18.259 8.20097 18.259C8.39889 18.259 8.55904 18.0988 8.55904 17.9009V17.768C8.55904 17.5703 8.39889 17.4099 8.20097 17.4099C8.00328 17.4099 7.8429 17.5703 7.8429 17.768V17.9009Z" fill="#CC3939"/>
<path d="M7.8429 16.2954C7.8429 16.4931 8.00328 16.6535 8.20097 16.6535C8.39889 16.6535 8.55904 16.4931 8.55904 16.2954V14.4908C8.55904 14.2929 8.39889 14.1328 8.20097 14.1328C8.00328 14.1328 7.8429 14.2929 7.8429 14.4908V16.2954Z" fill="#CC3939"/>
<path d="M8.20097 13.786C8.39889 13.786 8.55904 13.6256 8.55904 13.4279V12.7222C8.55904 12.5246 8.39889 12.3642 8.20097 12.3642C8.00328 12.3642 7.8429 12.5246 7.8429 12.7222V13.4279C7.8429 13.6256 8.00328 13.786 8.20097 13.786Z" fill="#CC3939"/>
<path d="M6.40763 19.7818C6.20994 19.7818 6.04956 19.9422 6.04956 20.1398V20.3455C6.04956 20.5431 6.20994 20.7035 6.40763 20.7035C6.60531 20.7035 6.7657 20.5431 6.7657 20.3455V20.1398C6.7657 19.9422 6.60531 19.7818 6.40763 19.7818Z" fill="#CC3939"/>
<path d="M6.7657 16.6585C6.7657 16.4608 6.60531 16.3004 6.40763 16.3004C6.20994 16.3004 6.04956 16.4608 6.04956 16.6585V18.9927C6.04956 19.1906 6.20994 19.3507 6.40763 19.3507C6.60531 19.3507 6.7657 19.1906 6.7657 18.9927V16.6585Z" fill="#CC3939"/>
<path d="M6.7657 11.06C6.7657 10.8624 6.60531 10.702 6.40763 10.702C6.20994 10.702 6.04956 10.8624 6.04956 11.06V15.5478C6.04956 15.7457 6.20994 15.9059 6.40763 15.9059C6.60531 15.9059 6.7657 15.7457 6.7657 15.5478V11.06Z" fill="#CC3939"/>
<path d="M9.87528 16.3596C10.073 16.3596 10.2333 16.1992 10.2333 16.0015V15.9679C10.2333 15.7702 10.073 15.6099 9.87528 15.6099C9.67736 15.6099 9.51721 15.7702 9.51721 15.9679V16.0015C9.51721 16.1992 9.67736 16.3596 9.87528 16.3596Z" fill="#CC3939"/>
<path d="M10.2333 10.4432C10.2333 10.2453 10.073 10.0851 9.87528 10.0851C9.67736 10.0851 9.51721 10.2453 9.51721 10.4432V14.8466C9.51721 15.0443 9.67736 15.2047 9.87528 15.2047C10.073 15.2047 10.2333 15.0443 10.2333 14.8466V10.4432Z" fill="#CC3939"/>
<path d="M10.2332 3.63642L11.2126 3.60518C11.3571 3.60052 11.4848 3.50937 11.5359 3.37393C11.5869 3.23849 11.5515 3.08579 11.4461 2.98672L8.36781 0.0969818C8.22351 -0.03846 7.99692 -0.0312334 7.86148 0.113067L4.9722 3.19163C4.87336 3.29723 4.84772 3.45202 4.90716 3.58397C4.96684 3.71568 5.09995 3.7989 5.24472 3.79424L6.02124 3.76976L6.04968 9.79005C6.05061 9.98703 6.21076 10.1463 6.40775 10.1463H6.40938C6.6073 10.1453 6.76675 9.98424 6.76582 9.78655L6.73575 3.39841C6.73528 3.30166 6.69565 3.20935 6.62618 3.14221C6.55648 3.0753 6.46276 3.03917 6.36625 3.0422L6.08581 3.05106L8.13865 0.863941L10.3258 2.91702L9.8635 2.93147C9.67024 2.93776 9.51685 3.09628 9.51685 3.28954V9.18114C9.51685 9.37906 9.67724 9.53921 9.87492 9.53921C10.0726 9.53921 10.233 9.37906 10.233 9.18114L10.2332 3.63642Z" fill="#CC3939"/>
<path d="M15.0492 18.0298C12.2618 18.0298 10.002 20.2895 10.002 23.0769C10.002 25.8645 12.2616 28.1241 15.0492 28.1241C17.8366 28.1241 20.0962 25.8645 20.0962 23.0771C20.0932 20.2909 17.8352 18.0331 15.0492 18.0298ZM15.0492 27.408C12.6572 27.408 10.7181 25.4689 10.7181 23.0771C10.7181 20.6851 12.6572 18.746 15.0492 18.746C17.441 18.746 19.3801 20.6851 19.3801 23.0771C19.3773 25.4677 17.4401 27.4052 15.0492 27.408Z" fill="#1BC47D"/>
<path d="M19.9676 18.2105C19.9541 18.19 19.9364 18.1725 19.9158 18.1587C17.2217 15.4863 12.8764 15.4863 10.1824 18.1587C10.1619 18.1725 10.1442 18.19 10.1307 18.2105C7.45823 20.9046 7.45823 25.2498 10.1307 27.9437C10.1379 27.9537 10.1456 27.9633 10.154 27.9723C10.1631 27.9805 10.1724 27.9882 10.1824 27.9954C12.8764 30.6681 17.2217 30.6681 19.9158 27.9954C19.9256 27.9882 19.9352 27.9805 19.9443 27.9723C19.9524 27.9633 19.9604 27.9537 19.9676 27.9437C22.6401 25.2498 22.6401 20.9046 19.9676 18.2105ZM19.6816 27.2028L19.462 26.9835C19.3219 26.8454 19.0967 26.8464 18.9577 26.9856C18.8188 27.1245 18.8179 27.3497 18.9556 27.4898L19.175 27.7094C18.1323 28.6419 16.8039 29.1932 15.4073 29.2729V28.9596C15.4073 28.7619 15.2469 28.6015 15.0493 28.6015C14.8516 28.6015 14.6912 28.7619 14.6912 28.9596V29.2729C13.2946 29.1932 11.9663 28.6419 10.9233 27.7094L11.1429 27.4898C11.2807 27.3497 11.2797 27.1245 11.1408 26.9856C11.0016 26.8466 10.7767 26.8457 10.6363 26.9835L10.417 27.2028C9.48449 26.1601 8.93317 24.8318 8.85344 23.4352H9.16675C9.36443 23.4352 9.52482 23.2748 9.52482 23.0771C9.52482 22.8794 9.36443 22.719 9.16675 22.719H8.85344C8.93317 21.3224 9.48449 19.9941 10.417 18.9511L10.6363 19.1707C10.7767 19.3085 11.0016 19.3076 11.1408 19.1686C11.2797 19.0294 11.2807 18.8045 11.1429 18.6641L10.9233 18.4448C11.966 17.5121 13.2943 16.961 14.6912 16.881V17.1943C14.6912 17.3922 14.8516 17.5524 15.0493 17.5524C15.2469 17.5524 15.4073 17.3922 15.4073 17.1943V16.881C16.8039 16.9607 18.1323 17.5121 19.1752 18.4445L18.9556 18.6641C18.864 18.7544 18.8276 18.8868 18.8607 19.011C18.8936 19.1353 18.9906 19.2325 19.1151 19.2654C19.2393 19.2985 19.3717 19.2621 19.462 19.1705L19.6816 18.9509C20.614 19.9939 21.1654 21.3222 21.2451 22.7188H20.9318C20.7339 22.7188 20.5737 22.8792 20.5737 23.0768C20.5737 23.2745 20.7339 23.4349 20.9318 23.4349H21.2451C21.1654 24.8318 20.614 26.1601 19.6816 27.2028Z" fill="#1BC47D"/>
<path d="M13.408 25.9794H13.984V26.4545C13.984 26.6522 14.1444 26.8126 14.3421 26.8126C14.54 26.8126 14.7002 26.6522 14.7002 26.4545V25.9794H15.1792V26.4545C15.1792 26.6522 15.3396 26.8126 15.5373 26.8126C15.735 26.8126 15.8954 26.6522 15.8954 26.4545V25.9104C16.4714 25.7372 16.9038 25.2591 17.0185 24.6686C17.1334 24.0783 16.9115 23.4729 16.4422 23.0967C16.9115 22.7202 17.1334 22.1148 17.0185 21.5245C16.9038 20.934 16.4714 20.4559 15.8954 20.2827V19.6994C15.8954 19.5018 15.735 19.3414 15.5373 19.3414C15.3396 19.3414 15.1792 19.5018 15.1792 19.6994V20.2137H14.7002V19.6994C14.7002 19.5018 14.54 19.3414 14.3421 19.3414C14.1444 19.3414 13.984 19.5018 13.984 19.6994V20.2137H13.408C13.2103 20.2137 13.0499 20.3741 13.0499 20.5718V25.6213C13.0499 25.8193 13.2103 25.9794 13.408 25.9794ZM16.3322 24.359C16.3315 24.8583 15.9271 25.2628 15.4277 25.2633H13.7661V23.4547H15.4277C15.9271 23.4552 16.3315 23.8597 16.3322 24.359ZM13.7661 20.9298H15.4277C15.7527 20.9273 16.0539 21.0991 16.2171 21.38C16.3802 21.6607 16.3802 22.0075 16.2171 22.2885C16.0539 22.5694 15.7527 22.7412 15.4277 22.7386H13.7661V20.9298Z" fill="#1BC47D"/>
</g>
<defs>
<clipPath id="clip0">
<rect width="30" height="30" fill="white"/>
</clipPath>
</defs>
</svg>
